<svg width="493" height="435" viewBox="0 0 493 435" fill="none" xmlns="http://www.w3.org/2000/svg">
<path d="M242 434.52C375.646 434.52 483.987 428.206 483.987 420.418C483.987 412.629 375.646 406.315 242 406.315C108.354 406.315 0.0126953 412.629 0.0126953 420.418C0.0126953 428.206 108.354 434.52 242 434.52Z" fill="#FD9191"/>
<path d="M108.963 409.56L118.697 405.941L112.707 382.229L102.973 385.973L108.963 409.56Z" fill="#D5948E"/>
<path d="M35.4558 409.81H45.939L47.5614 385.598H37.0782L35.4558 409.81Z" fill="#D5948E"/>
<path d="M46.9374 408.562H34.2079C33.8335 408.562 33.4591 408.811 33.3343 409.31L31.7119 418.546C31.5871 419.544 32.3359 420.417 33.3343 420.417C37.4527 420.293 40.4478 420.168 45.5646 420.168C48.6847 420.168 58.2943 420.542 62.6623 420.542C66.9055 420.542 67.4047 416.174 65.5327 415.8C57.4207 414.053 51.1807 411.557 48.5599 409.31C48.1855 408.811 47.5614 408.562 46.9374 408.562Z" fill="#263238"/>
<path d="M118.198 404.818L107.465 408.811C107.091 408.936 106.841 409.31 106.841 409.81L108.214 419.17C108.339 420.168 109.337 420.792 110.336 420.418C114.205 418.92 117.449 416.923 122.317 415.176C128.057 413.179 133.673 410.933 138.291 408.062C141.91 405.816 140.412 401.448 138.665 402.072C130.928 405.192 129.056 406.19 120.819 404.693C119.945 404.443 119.072 404.443 118.198 404.818Z" fill="#263238"/>
<path d="M90.6172 91.3199C93.862 97.1855 97.3564 103.176 100.851 108.917C104.345 114.782 107.964 120.523 111.708 125.89C112.582 127.262 113.705 128.51 114.579 129.883C114.953 130.507 115.078 130.632 115.452 130.882C115.702 131.131 116.326 131.256 117.324 131.131C118.323 131.006 119.571 130.757 120.819 130.258C123.44 129.259 126.185 127.762 128.931 126.014C130.304 125.141 131.676 124.267 132.924 123.269C134.297 122.27 135.67 121.272 136.793 120.274L142.659 125.515C141.536 127.138 140.412 128.51 139.289 130.008C138.041 131.381 136.918 132.878 135.545 134.126C134.172 135.499 132.8 136.747 131.302 137.995C129.804 139.243 128.182 140.366 126.31 141.365C124.438 142.363 122.441 143.362 119.945 143.986C117.574 144.61 114.579 144.734 111.459 143.986C108.339 143.237 105.593 141.24 103.721 139.118C102.473 137.621 101.225 136.373 100.102 134.875C95.4845 129.259 91.366 123.269 87.4972 117.403C83.6284 111.413 80.134 105.298 76.6396 98.9328L90.6172 91.3199Z" fill="#D4948E"/>
<path d="M72.0222 91.8191C69.1518 101.429 88.995 127.512 88.995 127.512L108.963 114.657C108.963 114.657 103.097 101.304 95.1102 91.1951C86.9982 80.7119 75.1422 81.2111 72.0222 91.8191Z" fill="#98B8FF"/>
<path opacity="0.2" d="M72.0222 91.8191C69.1518 101.429 88.995 127.512 88.995 127.512L108.963 114.657C108.963 114.657 103.097 101.304 95.1102 91.1951C86.9982 80.7119 75.1422 81.2111 72.0222 91.8191Z" fill="black"/>
<path opacity="0.2" d="M84.2525 103.051C88.3709 104.798 94.3614 114.658 97.6062 122.021L89.1197 127.512C89.1197 127.512 81.5069 117.403 76.3901 107.544C79.0109 104.549 82.1309 102.178 84.2525 103.051Z" fill="black"/>
<path d="M135.545 123.518L139.165 113.285L149.523 118.277C149.523 118.277 147.401 127.387 139.789 127.387L135.545 123.518Z" fill="#D5948E"/>
<path d="M148.525 106.546L152.893 111.413L149.648 118.277L139.289 113.285L148.525 106.546Z" fill="#D5948E"/>
<path opacity="0.2" d="M112.707 382.229L115.827 394.459L105.968 398.203L102.973 385.973L112.707 382.229Z" fill="black"/>
<path opacity="0.2" d="M37.0782 385.598H47.5614L46.6878 398.078H36.2046L37.0782 385.598Z" fill="black"/>
<path d="M25.4717 87.576C36.7037 127.262 34.8317 169.445 35.5805 177.931C43.8173 177.682 74.6429 176.434 91.4909 175.81C100.976 116.654 83.8781 83.7072 83.8781 83.7072C83.8781 83.7072 80.2589 82.9584 75.3917 82.4592C73.8941 82.3344 72.2717 82.2096 70.5245 82.0848C69.5261 82.0848 68.6525 81.96 67.6541 81.96C61.2893 81.8352 51.0557 82.8336 43.9421 83.7072C42.4445 83.832 40.9469 84.0816 39.4493 84.3312C38.0765 84.5808 36.7037 84.8304 35.4557 85.08C29.8397 86.328 25.4717 87.576 25.4717 87.576Z" fill="#98B8FF"/>
<path opacity="0.2" d="M25.4717 87.576C36.7037 127.262 34.8317 169.445 35.5805 177.931C43.8173 177.682 74.6429 176.434 91.4909 175.81C100.976 116.654 83.8781 83.7072 83.8781 83.7072C83.8781 83.7072 80.2589 82.9584 75.3917 82.4592C73.8941 82.3344 72.2717 82.2096 70.5245 82.0848C69.5261 82.0848 68.6525 81.96 67.6541 81.96C61.2893 81.8352 51.0557 82.8336 43.9421 83.7072C42.4445 83.832 40.9469 84.0816 39.4493 84.3312C38.0765 84.5808 36.7037 84.8304 35.4557 85.08C29.8397 86.328 25.4717 87.576 25.4717 87.576Z" fill="black"/>
<path opacity="0.2" d="M37.3277 104.549C38.3261 108.418 37.2029 125.889 33.2093 130.257C32.7101 124.641 31.9613 118.776 30.9629 112.785L37.3277 104.549Z" fill="black"/>
<path d="M44.3165 56.9999C46.4381 64.4879 48.9341 78.3407 43.9421 83.8319C48.4349 87.7007 54.1757 91.9439 63.2861 91.6943C72.3965 91.3199 70.2749 85.2047 67.6541 82.0847C59.0429 80.7119 58.7933 74.3471 59.7917 68.3567L44.3165 56.9999Z" fill="#D5948E"/>
<path d="M63.5357 90.3214L65.1581 91.4446L59.1677 93.1918L60.6653 90.4462L63.5357 90.3214Z" fill="#98B8FF"/>
<path d="M65.7822 89.6975L65.1582 91.4447L71.1486 93.1919L70.7742 89.9471L65.7822 89.6975Z" fill="#98B8FF"/>
<path d="M40.323 83.2079L42.6942 81.9599C43.443 81.5855 44.4414 81.5855 45.0654 82.2095C47.5614 84.0815 54.1758 88.4495 63.411 90.3215C58.6686 92.5679 59.7918 98.683 59.7918 98.683C59.7918 98.683 44.5662 93.6911 39.699 84.5807C39.5742 84.0815 39.8238 83.4575 40.323 83.2079Z" fill="white"/>
<path d="M70.2751 81.7103L66.7807 81.2111C66.4063 81.2111 66.1567 81.5855 66.2815 81.9599C67.5295 83.7071 69.5263 87.4511 65.6575 89.8223C70.3999 92.0687 71.8975 97.6847 71.8975 97.6847C71.8975 97.6847 78.1375 90.9455 70.8991 82.0847C70.8991 81.8351 70.6495 81.7103 70.2751 81.7103Z" fill="white"/>
<path opacity="0.2" d="M50.6813 61.6176L59.7917 68.3568C59.5421 69.7296 59.4173 71.2272 59.4173 72.6C56.1725 72.3504 51.4301 69.1056 50.8061 65.736C50.4317 63.9888 50.4317 62.3664 50.6813 61.6176Z" fill="black"/>
<path d="M70.8989 41.5247C70.5245 45.1439 67.0301 48.2639 64.7837 49.0127L62.0381 33.1631C68.1533 28.7951 71.3981 36.4079 70.8989 41.5247Z" fill="#263238"/>
<path d="M41.1967 45.8927C43.0687 56.1263 43.5679 62.1167 49.3087 66.8591C58.0447 73.8479 70.1503 67.7327 71.3983 57.1247C72.5215 47.6399 69.4015 32.5391 58.7935 29.5439C48.5599 26.7983 39.3247 35.6591 41.1967 45.8927Z" fill="#D5948E"/>
<path d="M43.0686 52.7567C47.811 55.2527 49.9326 49.6367 49.9326 47.3903C50.0574 43.7711 48.435 39.7775 46.563 38.2799C55.6734 38.2799 73.7694 37.7807 69.1518 29.1695C64.5342 20.4335 55.4238 21.4319 48.5598 26.1743C44.9406 28.6703 33.2094 26.5487 36.0798 33.2879C30.0894 36.5327 35.331 48.6383 43.0686 52.7567Z" fill="#263238"/>
<path d="M37.203 32.664C37.203 32.664 35.2062 32.7888 32.7102 31.1664C33.459 34.4112 36.7038 34.4112 36.7038 34.4112L37.203 32.664Z" fill="#263238"/>
<path d="M37.3277 54.2544C38.5757 56.7504 40.8221 58.4975 43.0685 59.1215C46.3133 60.2447 47.0621 57.1247 46.3133 54.0047C45.5645 51.1343 44.0669 47.2656 40.6973 47.5152C37.3277 48.0144 35.9549 51.384 37.3277 54.2544Z" fill="#D5948E"/>
<path d="M103.597 286.382C99.3535 254.808 91.3663 175.934 91.3663 175.934L54.675 177.307C54.675 177.307 72.0223 256.181 78.2623 288.13C84.5023 320.078 101.974 397.205 101.974 397.205L118.573 390.965C118.573 390.84 108.089 319.205 103.597 286.382Z" fill="#263238"/>
<path opacity="0.2" d="M68.403 198.523C66.1566 199.147 62.5374 200.52 60.291 202.642C63.7854 218.616 68.2782 239.582 72.147 258.053C74.8926 242.078 74.8926 211.752 68.403 198.523Z" fill="black"/>
<path d="M71.6478 176.558C71.6478 176.558 63.9102 262.171 60.291 292.498C56.4222 325.819 51.555 395.582 51.555 395.582H32.3358C32.3358 395.582 31.587 333.806 34.083 301.234C36.9534 264.043 35.5806 177.806 35.5806 177.806L71.6478 176.558Z" fill="#263238"/>
<path d="M54.0509 396.082H31.4621L31.0876 389.342L56.1725 388.843L54.0509 396.082Z" fill="#98B8FF"/>
<path d="M120.819 390.466L101.101 397.829L98.7295 391.464L120.569 382.853L120.819 390.466Z" fill="#98B8FF"/>
<path d="M57.1709 47.016C57.2957 47.8896 57.7949 48.5136 58.2941 48.3888C58.7933 48.264 59.1677 47.64 59.1677 46.7664C59.0429 45.8928 58.5437 45.2688 58.0445 45.3936C57.4205 45.3936 57.0461 46.1424 57.1709 47.016Z" fill="#263238"/>
<path d="M66.531 45.8927C66.6558 46.7663 67.155 47.3903 67.6542 47.2655C68.1534 47.1407 68.5278 46.5167 68.5278 45.6431C68.403 44.7695 67.9038 44.1455 67.4046 44.2703C66.9054 44.3951 66.531 45.0191 66.531 45.8927Z" fill="#263238"/>
<path d="M63.6606 46.6415C63.6606 46.6415 66.1567 51.2591 68.5279 53.3807C67.1551 54.8783 64.6591 54.6287 64.6591 54.6287L63.6606 46.6415Z" fill="#A02724"/>
<path d="M61.2894 57.2496C58.0447 57.2496 56.2975 55.128 56.2975 55.0032C56.1727 54.8784 56.1727 54.7536 56.2975 54.6288C56.4223 54.504 56.5471 54.504 56.6719 54.6288C56.6719 54.6288 58.6687 57 62.4126 56.6256C62.5374 56.6256 62.6622 56.7504 62.6622 56.8752C62.6622 57 62.5374 57.1248 62.4126 57.1248C61.9134 57.2496 61.6638 57.2496 61.2894 57.2496Z" fill="#263238"/>
<path d="M53.8015 44.2703C53.6767 44.2703 53.6767 44.2703 53.5519 44.1455C53.3023 44.0207 53.1775 43.6463 53.4271 43.5215C54.7999 41.1503 57.0463 41.0255 57.1711 41.0255C57.4207 41.0255 57.6703 41.2751 57.6703 41.5247C57.6703 41.7743 57.4207 42.0239 57.1711 42.0239C57.0463 42.0239 55.2991 42.1487 54.1759 44.0207C54.1759 44.1455 54.0511 44.2703 53.8015 44.2703Z" fill="#263238"/>
<path d="M70.275 42.1487C70.1502 42.1487 69.9006 42.0239 69.9006 41.8991C68.7774 40.0271 66.9054 40.0271 66.9054 40.0271C66.6558 40.0271 66.4062 39.7775 66.4062 39.5279C66.4062 39.2783 66.6558 39.0287 66.9054 39.0287C67.0302 39.0287 69.2766 39.0287 70.7742 41.3999C70.899 41.6495 70.899 41.8991 70.6494 42.0239C70.5246 42.1487 70.3998 42.1487 70.275 42.1487Z" fill="#263238"/>
<path d="M50.5565 410.434C49.5581 410.434 48.5597 410.184 47.8109 410.059C47.6861 410.059 47.6861 409.934 47.5613 409.81C47.5613 409.685 47.5613 409.56 47.6861 409.56C48.0605 409.31 51.3053 407.189 52.5533 407.813C52.6781 407.938 52.9277 408.062 53.0525 408.562C53.0525 409.061 52.9277 409.56 52.5533 409.81C52.0541 410.309 51.3053 410.434 50.5565 410.434ZM48.4349 409.685C50.1821 410.059 51.5549 409.934 52.1789 409.435C52.4285 409.186 52.5533 408.936 52.4285 408.562C52.4285 408.312 52.3037 408.312 52.3037 408.312C51.6797 407.938 49.8077 408.936 48.4349 409.685Z" fill="#98B8FF"/>
<path d="M47.8109 410.059H47.6861C47.5613 410.059 47.5613 409.934 47.5613 409.81C47.5613 409.685 47.6861 406.689 48.8093 405.691C49.0589 405.441 49.4333 405.317 49.8077 405.317C50.4317 405.441 50.5565 405.816 50.6813 405.941C50.9309 407.189 49.0589 409.435 47.8109 410.059C47.9357 410.059 47.9357 410.059 47.8109 410.059ZM49.6829 405.816C49.4333 405.816 49.3085 405.941 49.1837 406.065C48.4349 406.689 48.1853 408.437 48.0605 409.31C49.0589 408.437 50.3069 406.814 50.1821 406.065C50.1821 405.941 50.1821 405.816 49.6829 405.816C49.8077 405.816 49.8077 405.816 49.6829 405.816Z" fill="#98B8FF"/>
<path d="M119.696 405.816C119.571 405.816 119.571 405.816 119.446 405.691C119.446 405.566 119.446 405.441 119.446 405.441C119.82 405.067 122.94 401.573 124.438 401.822C124.688 401.822 124.937 402.072 125.062 402.321C125.312 402.821 125.312 403.195 125.062 403.569C124.313 404.817 121.443 405.441 119.696 405.816ZM124.313 402.197C123.44 402.197 121.692 403.819 120.444 405.192C122.691 404.693 124.313 404.069 124.688 403.32C124.812 403.07 124.812 402.821 124.688 402.446C124.563 402.197 124.438 402.197 124.313 402.197Z" fill="#98B8FF"/>
<path d="M119.696 405.816C119.571 405.816 119.571 405.816 119.696 405.816C119.571 405.816 119.446 405.691 119.446 405.691C119.446 405.566 118.697 402.821 119.571 401.323C119.821 400.824 120.195 400.574 120.694 400.449C121.318 400.325 121.693 400.574 121.817 400.824C122.441 401.822 120.819 404.817 119.945 405.816C119.821 405.691 119.696 405.816 119.696 405.816ZM121.069 400.824C120.944 400.824 120.944 400.824 120.819 400.824C120.445 400.949 120.195 401.073 119.945 401.448C119.321 402.446 119.571 404.193 119.821 404.942C120.694 403.819 121.693 401.448 121.318 400.824C121.318 400.949 121.193 400.824 121.069 400.824Z" fill="#98B8FF"/>
<path d="M36.9534 102.302C33.8334 108.792 30.5886 115.406 27.4686 122.021C25.971 125.265 24.3486 128.635 22.9758 131.88L20.8542 136.872L19.8558 139.368L19.6062 139.992L19.4814 140.491C19.3566 140.741 19.2318 141.115 19.107 141.365C18.3582 143.736 18.1086 146.232 18.7326 148.977C19.2318 151.723 20.355 154.469 21.9774 157.339C23.5998 160.085 25.5966 162.83 27.9678 165.326C29.091 166.574 30.339 167.947 31.587 169.07C32.211 169.694 32.835 170.318 33.459 170.817C34.083 171.441 34.8318 172.065 35.331 172.44L31.2126 179.054C29.2158 178.056 27.7182 177.057 25.971 175.934C24.3486 174.811 22.7262 173.688 21.1038 172.44C17.9838 169.944 14.9886 167.073 12.3678 163.704C9.74697 160.334 7.50057 156.465 6.00297 151.973C4.63017 147.48 4.25577 142.363 5.37897 137.496C5.50377 136.872 5.62857 136.248 5.87817 135.749L6.37737 134.251L7.25097 131.505C7.87497 129.633 8.49897 127.886 9.12297 126.139C10.371 122.52 11.7438 119.025 13.2414 115.531C16.1118 108.542 19.3566 101.803 22.851 94.9391L36.9534 102.302Z" fill="#D4948E"/>
<path d="M25.4718 87.5759C15.987 90.5711 6.5022 122.894 6.5022 122.894L28.5918 132.504C28.5918 132.504 35.7054 116.904 39.8238 104.674C44.3166 91.3199 37.0782 83.9567 25.4718 87.5759Z" fill="#98B8FF"/>
<path opacity="0.2" d="M25.4718 87.5759C15.987 90.5711 6.5022 122.894 6.5022 122.894L28.5918 132.504C28.5918 132.504 35.7054 116.904 39.8238 104.674C44.3166 91.3199 37.0782 83.9567 25.4718 87.5759Z" fill="black"/>
<path d="M32.9598 170.443L42.0702 175.81L33.2094 184.67C33.2094 184.67 25.4718 178.68 27.843 174.062L32.9598 170.443Z" fill="#D5948E"/>
<path d="M48.1855 184.546L38.9503 190.91L33.2095 184.67L42.0703 175.934L48.1855 184.546Z" fill="#D5948E"/>
<path d="M489.605 168.172L489.172 174.147L490.417 174.237L490.85 168.262L489.605 168.172Z" fill="#407BFF"/>
<path d="M491.193 145.37L489.931 162.797L491.176 162.887L492.438 145.46L491.193 145.37Z" fill="#407BFF"/>
<path d="M457.03 341.544H151.395C142.035 341.544 134.922 333.931 135.67 324.571L151.894 98.9328C152.518 89.5728 160.755 81.96 170.115 81.96H475.75C485.11 81.96 492.224 89.5728 491.475 98.9328L475.251 324.571C474.627 333.806 466.39 341.544 457.03 341.544Z" fill="#407BFF"/>
<path d="M385.894 420.418H286.678L269.082 297.864H368.298L385.894 420.418Z" fill="#407BFF"/>
<path d="M370.17 413.179H262.842L260.72 420.418H368.048L370.17 413.179Z" fill="#407BFF"/>
<path d="M373.539 356.894L276.819 351.653L269.082 297.864H365.053L373.539 356.894Z" fill="#263238"/>
<path d="M453.661 341.544H147.901C138.541 341.544 131.427 333.931 132.176 324.571L148.4 98.9328C149.024 89.5728 157.261 81.96 166.621 81.96H472.256C481.616 81.96 488.73 89.5728 487.981 98.9328L471.757 324.571C471.133 333.806 462.896 341.544 453.661 341.544Z" fill="#263238"/>
<path d="M487.197 101.022L477.906 230.477L479.151 230.566L488.441 101.111L487.197 101.022Z" fill="white"/>
<path d="M477.188 241.79L473.976 286.601L475.221 286.69L478.432 241.879L477.188 241.79Z" fill="white"/>
<path d="M452.912 337.301H149.149C141.91 337.301 136.294 331.31 136.918 324.072L153.018 99.3072C153.517 92.0688 159.882 86.0784 167.245 86.0784H471.008C478.247 86.0784 483.863 92.0688 483.239 99.3072L467.139 324.072C466.64 331.31 460.275 337.301 452.912 337.301Z" fill="white"/>
<path opacity="0.2" d="M452.912 337.301H149.149C141.91 337.301 136.294 331.31 136.918 324.072L153.018 99.3072C153.517 92.0688 159.882 86.0784 167.245 86.0784H471.008C478.247 86.0784 483.863 92.0688 483.239 99.3072L467.139 324.072C466.64 331.31 460.275 337.301 452.912 337.301Z" fill="#407BFF"/>
<path opacity="0.5" d="M227.149 327.317H156.263C152.768 327.317 150.023 324.446 150.272 320.952L165.872 102.552C166.122 99.0575 169.242 96.1871 172.736 96.1871H243.622C247.117 96.1871 249.862 99.0575 249.613 102.552L234.013 320.952C233.639 324.446 230.643 327.317 227.149 327.317Z" fill="white"/>
<path opacity="0.4" d="M224.403 126.888H187.712C184.592 126.888 182.096 124.267 182.346 121.147L182.72 115.531C182.97 112.411 185.715 109.79 188.835 109.79H225.526C228.646 109.79 231.142 112.411 230.893 115.531L230.518 121.147C230.269 124.267 227.523 126.888 224.403 126.888Z" fill="#407BFF"/>
<path d="M201.066 215.246H145.03C139.539 215.246 135.296 210.754 135.67 205.262L139.664 149.227C140.038 143.736 144.906 139.243 150.397 139.243H206.432C211.923 139.243 216.166 143.736 215.792 149.227L211.798 205.262C211.424 210.754 206.557 215.246 201.066 215.246Z" fill="#407BFF"/>
<path d="M209.053 169.32C206.931 169.32 205.059 171.067 204.934 173.189L204.31 181.301C204.186 183.422 205.808 185.17 207.805 185.17H213.546C214.045 185.17 214.544 184.795 214.544 184.171L215.542 170.318C215.542 169.819 215.168 169.32 214.669 169.32H209.053Z" fill="white"/>
<path d="M187.462 153.346H152.144C151.27 153.346 150.646 152.597 150.771 151.848C150.771 150.974 151.52 150.35 152.394 150.35H187.712C188.586 150.35 189.21 151.099 189.085 151.848C188.96 152.722 188.211 153.346 187.462 153.346Z" fill="white"/>
<path d="M186.838 161.208H151.52C150.646 161.208 150.022 160.459 150.147 159.71C150.147 158.837 150.896 158.213 151.77 158.213H187.088C187.962 158.213 188.586 158.962 188.461 159.71C188.461 160.459 187.712 161.208 186.838 161.208Z" fill="white"/>
<path d="M174.109 168.946H151.021C150.147 168.946 149.523 168.197 149.648 167.448C149.648 166.574 150.397 165.95 151.27 165.95H174.358C175.232 165.95 175.856 166.699 175.731 167.448C175.731 168.322 174.982 168.946 174.109 168.946Z" fill="white"/>
<path opacity="0.5" d="M187.462 206.136H153.267C149.648 206.136 146.902 203.141 147.152 199.522L148.4 181.55C148.65 177.931 151.77 174.936 155.389 174.936H189.584C193.203 174.936 195.949 177.931 195.699 181.55L194.451 199.522C194.326 203.266 191.082 206.136 187.462 206.136Z" fill="white"/>
<path opacity="0.4" d="M219.411 236.213H176.854C175.232 236.213 174.109 234.965 174.234 233.342C174.358 231.72 175.731 230.472 177.229 230.472H219.786C221.408 230.472 222.531 231.72 222.406 233.342C222.406 234.965 221.034 236.213 219.411 236.213Z" fill="#407BFF"/>
<path opacity="0.8" d="M210.8 247.445H183.843C182.221 247.445 181.098 246.197 181.223 244.574C181.347 242.952 182.72 241.704 184.218 241.704H211.175C212.797 241.704 213.92 242.952 213.795 244.574C213.795 246.072 212.423 247.445 210.8 247.445Z" fill="white"/>
<path opacity="0.4" d="M217.165 267.038H174.608C172.986 267.038 171.862 265.79 171.987 264.168C172.112 262.546 173.485 261.298 174.982 261.298H217.539C219.162 261.298 220.285 262.546 220.16 264.168C220.16 265.79 218.787 267.038 217.165 267.038Z" fill="#407BFF"/>
<path opacity="0.8" d="M208.678 278.27H181.722C180.099 278.27 178.976 277.022 179.101 275.4C179.226 273.778 180.598 272.53 182.096 272.53H209.053C210.675 272.53 211.798 273.778 211.674 275.4C211.549 276.897 210.176 278.27 208.678 278.27Z" fill="white"/>
<path opacity="0.4" d="M215.043 297.864H172.486C170.864 297.864 169.741 296.616 169.866 294.994C169.99 293.371 171.363 292.123 172.861 292.123H215.418C217.04 292.123 218.163 293.371 218.038 294.994C217.914 296.616 216.541 297.864 215.043 297.864Z" fill="#407BFF"/>
<path opacity="0.8" d="M206.432 308.971H179.475C177.853 308.971 176.73 307.723 176.854 306.101C176.979 304.478 178.352 303.23 179.85 303.23H206.806C208.429 303.23 209.552 304.478 209.427 306.101C209.427 307.723 208.054 308.971 206.432 308.971Z" fill="white"/>
<path opacity="0.5" d="M456.282 263.294C458.154 260.424 462.397 261.672 462.147 264.917L458.029 322.075C457.779 325.07 455.658 327.442 453.037 327.442H247.367C244.871 327.442 242.999 325.07 243.123 322.075L245.495 288.13C245.869 283.512 250.487 280.267 254.73 281.64C266.336 285.259 276.32 283.138 285.431 278.52C305.149 268.661 321.747 247.694 344.461 247.694C345.335 247.694 346.208 247.694 347.082 247.819C380.903 249.816 391.136 291.749 417.344 291.749C425.082 291.749 432.195 288.379 438.31 283.637C445.798 277.771 451.914 269.784 456.282 263.294Z" fill="#407BFF"/>
<path opacity="0.5" d="M460.525 286.757L458.029 321.95C457.779 324.946 455.658 327.317 453.037 327.317H247.367C244.871 327.317 242.999 324.946 243.123 321.95L248.115 251.938C248.49 247.195 254.73 245.074 257.226 249.067C263.84 259.051 273.949 272.03 285.555 278.395C290.048 280.891 294.666 282.389 299.408 282.389C316.007 282.389 330.109 262.67 347.082 247.694C357.44 238.459 368.797 231.096 382.4 231.096C410.855 231.096 414.973 277.272 438.186 283.637C442.678 284.885 447.795 284.635 454.035 282.264C457.405 280.891 460.774 283.262 460.525 286.757Z" fill="#407BFF"/>
<g opacity="0.8">
<path opacity="0.8" d="M461.523 273.154C461.399 273.154 461.274 273.154 461.274 273.029L461.149 272.904V272.779C461.149 272.654 461.149 272.53 461.274 272.53C461.399 272.405 461.648 272.405 461.898 272.53C462.023 272.654 462.023 272.779 462.023 272.779V272.904C462.023 272.904 462.023 273.029 461.898 273.029C461.773 273.029 461.648 273.154 461.523 273.154Z" fill="white"/>
<path opacity="0.8" d="M261.469 302.357C261.219 302.357 261.095 302.232 261.095 301.982C261.095 301.733 261.344 301.608 261.469 301.608C261.719 301.608 261.843 301.858 261.843 301.982C261.968 302.232 261.719 302.357 261.469 302.357ZM257.226 302.107C256.976 302.107 256.851 301.858 256.851 301.608C256.851 301.358 257.101 301.234 257.351 301.234C257.6 301.234 257.725 301.483 257.725 301.733C257.725 301.982 257.475 302.107 257.226 302.107ZM265.338 301.733C265.338 301.483 265.463 301.234 265.712 301.234C265.962 301.234 266.211 301.358 266.211 301.608C266.211 301.858 266.087 302.107 265.837 302.107C265.463 302.107 265.338 301.982 265.338 301.733ZM252.983 301.483C252.733 301.483 252.608 301.234 252.608 300.984C252.608 300.734 252.858 300.61 253.107 300.61C253.357 300.61 253.482 300.859 253.482 301.109C253.482 301.358 253.357 301.483 252.983 301.483C253.107 301.483 252.983 301.483 252.983 301.483ZM269.456 301.109C269.456 300.859 269.581 300.61 269.706 300.61C269.955 300.61 270.205 300.734 270.205 300.859C270.205 301.109 270.08 301.358 269.955 301.358H269.831C269.706 301.358 269.456 301.234 269.456 301.109ZM405.987 301.234C405.738 301.234 405.613 300.984 405.613 300.859C405.613 300.61 405.863 300.485 405.987 300.485C406.237 300.485 406.362 300.734 406.362 300.859C406.362 300.984 406.237 301.234 405.987 301.234ZM409.731 300.61C409.731 300.36 409.856 300.11 410.106 300.11C410.355 300.11 410.605 300.235 410.605 300.485C410.605 300.734 410.48 300.984 410.231 300.984C409.981 300.984 409.856 300.859 409.731 300.61ZM401.744 300.984C401.495 300.984 401.37 300.734 401.37 300.485C401.37 300.235 401.619 300.11 401.869 300.11C402.119 300.11 402.243 300.36 402.243 300.61C402.119 300.859 401.994 300.984 401.744 300.984ZM248.864 300.485C248.615 300.36 248.49 300.235 248.615 299.986C248.739 299.736 248.864 299.611 249.114 299.736C249.363 299.861 249.488 299.986 249.363 300.235C249.363 300.36 249.239 300.485 248.864 300.485C248.989 300.485 248.864 300.485 248.864 300.485ZM413.975 300.11C413.975 299.861 414.099 299.611 414.349 299.611C414.599 299.611 414.848 299.736 414.848 299.986C414.848 300.235 414.723 300.485 414.474 300.485C414.474 300.485 414.474 300.485 414.349 300.485C414.224 300.36 413.975 300.235 413.975 300.11ZM397.501 300.235C397.251 300.235 397.127 299.986 397.251 299.736C397.251 299.486 397.501 299.362 397.751 299.486C398 299.486 398.125 299.736 398 299.986C398 300.11 397.751 300.235 397.501 300.235C397.626 300.235 397.501 300.235 397.501 300.235ZM273.575 299.861C273.45 299.611 273.575 299.362 273.824 299.362C274.074 299.237 274.323 299.362 274.323 299.611C274.448 299.861 274.323 300.11 274.074 300.11H273.949C273.699 300.11 273.575 299.986 273.575 299.861ZM418.093 299.112C418.093 298.862 418.218 298.613 418.343 298.613C418.592 298.613 418.842 298.738 418.842 298.862C418.842 299.112 418.717 299.362 418.592 299.362H418.467C418.343 299.362 418.093 299.237 418.093 299.112ZM393.383 298.987C393.133 298.862 393.008 298.613 393.133 298.488C393.258 298.238 393.507 298.114 393.632 298.238C393.882 298.363 394.007 298.613 393.882 298.738C393.882 298.862 393.632 298.987 393.507 298.987C393.507 298.987 393.507 298.987 393.383 298.987ZM277.443 298.114C277.319 297.864 277.443 297.614 277.568 297.49C277.818 297.365 278.067 297.49 278.192 297.739C278.317 297.989 278.192 298.238 278.067 298.363C278.067 298.363 277.943 298.363 277.818 298.363C277.568 298.363 277.443 298.363 277.443 298.114ZM422.211 297.864C422.087 297.614 422.211 297.365 422.461 297.365C422.711 297.24 422.96 297.365 422.96 297.614C423.085 297.864 422.96 298.114 422.711 298.114H422.586C422.336 298.114 422.211 297.989 422.211 297.864ZM389.514 297.365C389.264 297.24 389.264 296.99 389.264 296.741C389.389 296.491 389.639 296.491 389.888 296.491C390.138 296.616 390.138 296.866 390.138 297.115C390.013 297.24 389.888 297.365 389.763 297.365C389.639 297.365 389.514 297.365 389.514 297.365ZM426.08 296.366C425.955 296.117 426.08 295.867 426.33 295.867C426.579 295.742 426.829 295.867 426.829 296.117C426.954 296.366 426.829 296.616 426.579 296.741H426.455C426.33 296.616 426.205 296.491 426.08 296.366ZM281.063 296.117C280.938 295.867 281.063 295.618 281.187 295.493C281.437 295.368 281.687 295.368 281.811 295.618C281.936 295.867 281.811 296.117 281.687 296.242C281.687 296.242 281.562 296.366 281.437 296.366C281.312 296.366 281.187 296.242 281.063 296.117ZM385.645 295.368C385.395 295.243 385.395 294.994 385.52 294.744C385.645 294.494 385.895 294.494 386.144 294.619C386.394 294.744 386.394 294.994 386.269 295.243C386.144 295.368 386.019 295.493 385.895 295.493C385.77 295.493 385.77 295.493 385.645 295.368ZM429.949 294.619C429.824 294.37 429.949 294.12 430.199 293.995C430.448 293.87 430.698 293.995 430.823 294.245C430.947 294.494 430.823 294.744 430.573 294.869H430.448C430.199 294.869 430.074 294.869 429.949 294.619ZM284.557 293.746C284.432 293.496 284.432 293.246 284.682 293.122C284.931 292.997 285.181 292.997 285.306 293.246C285.431 293.496 285.431 293.746 285.181 293.87C285.056 293.87 285.056 293.995 284.931 293.995C284.807 293.995 284.682 293.87 284.557 293.746ZM382.026 293.246C381.776 293.122 381.776 292.872 381.901 292.622C382.026 292.373 382.275 292.373 382.525 292.498C382.775 292.622 382.775 292.872 382.65 293.122C382.525 293.246 382.4 293.371 382.275 293.371C382.151 293.371 382.026 293.371 382.026 293.246ZM433.818 292.747C433.693 292.498 433.818 292.248 433.943 292.123C434.192 291.998 434.442 292.123 434.567 292.248C434.691 292.498 434.567 292.747 434.442 292.872C434.442 292.872 434.317 292.872 434.192 292.872C434.067 292.997 433.818 292.872 433.818 292.747ZM288.051 291.25C287.927 291 287.927 290.75 288.051 290.626C288.176 290.501 288.551 290.501 288.675 290.75C288.8 290.875 288.8 291.25 288.675 291.374C288.551 291.374 288.551 291.499 288.426 291.499C288.176 291.374 288.051 291.374 288.051 291.25ZM378.407 291C378.157 290.875 378.157 290.626 378.282 290.376C378.407 290.126 378.656 290.126 378.906 290.251C379.031 290.376 379.155 290.626 379.031 290.875C378.906 291 378.781 291.125 378.656 291.125C378.531 291.125 378.407 291 378.407 291ZM437.437 290.75C437.312 290.501 437.437 290.251 437.562 290.126C437.812 290.002 438.061 290.126 438.186 290.251C438.311 290.501 438.186 290.75 438.061 290.875C437.936 290.875 437.936 290.875 437.811 290.875C437.687 290.875 437.562 290.875 437.437 290.75ZM374.912 288.629C374.663 288.504 374.663 288.254 374.787 288.005C374.912 287.88 375.162 287.755 375.411 287.88C375.661 288.005 375.661 288.254 375.536 288.504C375.411 288.629 375.287 288.629 375.162 288.629C375.037 288.754 374.912 288.754 374.912 288.629ZM441.056 288.504C440.931 288.254 441.056 288.005 441.181 287.88C441.431 287.755 441.68 287.88 441.805 288.005C441.93 288.254 441.805 288.504 441.68 288.629C441.68 288.629 441.555 288.754 441.431 288.754C441.306 288.754 441.181 288.629 441.056 288.504ZM291.296 288.504C291.171 288.379 291.171 288.005 291.296 287.88C291.421 287.755 291.795 287.755 291.92 287.88C292.045 288.13 292.045 288.379 291.795 288.504C291.671 288.629 291.671 288.629 291.546 288.629C291.546 288.629 291.421 288.629 291.296 288.504ZM444.675 286.133C444.551 285.883 444.551 285.634 444.8 285.509C445.05 285.384 445.299 285.384 445.424 285.634C445.549 285.883 445.549 286.133 445.299 286.258C445.175 286.258 445.175 286.382 445.05 286.382C444.925 286.382 444.8 286.258 444.675 286.133ZM371.293 286.258C371.043 286.133 371.043 285.883 371.168 285.634C371.293 285.384 371.543 285.384 371.792 285.509C372.042 285.634 372.042 285.883 371.917 286.133C371.792 286.258 371.667 286.382 371.543 286.382C371.543 286.382 371.418 286.382 371.293 286.258ZM294.541 285.758C294.416 285.634 294.416 285.259 294.541 285.134C294.666 285.01 295.04 285.01 295.165 285.134C295.29 285.259 295.29 285.634 295.165 285.758C295.04 285.883 295.04 285.883 294.915 285.883C294.791 286.008 294.666 285.883 294.541 285.758ZM367.799 283.886C367.549 283.762 367.549 283.512 367.674 283.262C367.799 283.013 368.048 283.013 368.298 283.138C368.547 283.262 368.547 283.512 368.423 283.762C368.298 283.886 368.173 283.886 368.048 283.886C368.048 284.011 367.923 284.011 367.799 283.886ZM448.17 283.762C448.045 283.637 448.045 283.262 448.295 283.138C448.419 283.013 448.794 283.013 448.919 283.262C449.043 283.387 449.044 283.762 448.794 283.886C448.669 283.886 448.669 284.011 448.544 284.011C448.295 283.886 448.17 283.886 448.17 283.762ZM297.786 283.138C297.661 283.013 297.661 282.638 297.786 282.514C298.035 282.389 298.285 282.389 298.41 282.514C298.535 282.638 298.535 283.013 298.41 283.138C298.285 283.262 298.285 283.262 298.16 283.262C298.035 283.262 297.911 283.262 297.786 283.138ZM364.304 281.64C364.055 281.515 364.055 281.266 364.179 281.016C364.304 280.766 364.554 280.766 364.803 280.891C365.053 281.016 365.053 281.266 364.928 281.515C364.803 281.64 364.679 281.765 364.554 281.765C364.429 281.765 364.304 281.765 364.304 281.64ZM451.539 281.266C451.415 281.016 451.415 280.766 451.664 280.642C451.789 280.517 452.163 280.517 452.288 280.766C452.413 280.891 452.413 281.266 452.163 281.39C452.039 281.39 452.039 281.515 451.914 281.515C451.789 281.39 451.664 281.266 451.539 281.266ZM301.155 280.517C301.031 280.267 301.031 280.018 301.28 279.893C301.405 279.768 301.779 279.768 301.904 280.018C302.029 280.142 302.029 280.517 301.779 280.642C301.655 280.642 301.655 280.766 301.53 280.766C301.28 280.642 301.28 280.642 301.155 280.517ZM360.685 279.518C360.435 279.394 360.435 279.144 360.56 278.894C360.685 278.645 360.935 278.645 361.184 278.77C361.434 278.894 361.434 279.144 361.309 279.394C361.184 279.518 361.059 279.643 360.935 279.643C360.81 279.518 360.685 279.518 360.685 279.518ZM454.784 278.52C454.66 278.395 454.66 278.021 454.784 277.896C455.034 277.771 455.283 277.771 455.408 277.896C455.533 278.021 455.533 278.395 455.408 278.52C455.283 278.52 455.159 278.645 455.159 278.645C455.034 278.77 454.909 278.645 454.784 278.52ZM304.525 278.021C304.4 277.771 304.4 277.522 304.65 277.397C304.899 277.272 305.149 277.272 305.274 277.522C305.399 277.771 305.399 278.021 305.149 278.146C305.024 278.146 305.024 278.27 304.899 278.27C304.775 278.146 304.65 278.146 304.525 278.021ZM356.941 277.522C356.691 277.397 356.691 277.147 356.816 276.898C356.941 276.648 357.191 276.648 357.44 276.648C357.69 276.773 357.69 277.022 357.565 277.272C357.44 277.397 357.315 277.522 357.191 277.522C357.066 277.522 356.941 277.522 356.941 277.522ZM458.029 275.774C457.904 275.65 457.904 275.275 458.029 275.15C458.154 275.026 458.528 275.026 458.653 275.15C458.778 275.275 458.778 275.65 458.653 275.774C458.528 275.899 458.528 275.899 458.403 275.899C458.279 276.024 458.154 275.899 458.029 275.774ZM308.144 275.774C308.019 275.525 308.144 275.275 308.269 275.15C308.519 275.026 308.768 275.15 308.893 275.275C309.018 275.525 308.893 275.774 308.768 275.899C308.643 275.899 308.643 275.899 308.519 275.899C308.394 276.024 308.269 275.899 308.144 275.774ZM353.197 275.65C352.947 275.525 352.947 275.275 352.947 275.026C353.072 274.776 353.322 274.776 353.571 274.776C353.821 274.901 353.821 275.15 353.821 275.4C353.821 275.525 353.571 275.65 353.447 275.65C353.197 275.774 353.197 275.65 353.197 275.65ZM349.203 274.152C348.954 274.027 348.829 273.778 348.954 273.653C349.079 273.403 349.328 273.278 349.453 273.403C349.703 273.528 349.827 273.778 349.703 273.902C349.703 274.027 349.453 274.152 349.328 274.152C349.328 274.152 349.328 274.152 349.203 274.152ZM311.888 273.778C311.763 273.528 311.888 273.278 312.138 273.154C312.387 273.029 312.637 273.154 312.762 273.403C312.887 273.653 312.762 273.902 312.512 274.027H312.387C312.138 274.027 312.013 273.902 311.888 273.778ZM345.21 272.779C344.96 272.654 344.835 272.53 344.96 272.28C344.96 272.03 345.21 271.906 345.459 272.03C345.709 272.03 345.834 272.28 345.709 272.53C345.709 272.654 345.584 272.779 345.21 272.779C345.335 272.779 345.335 272.779 345.21 272.779ZM315.757 272.155C315.632 271.906 315.757 271.656 316.007 271.656C316.256 271.531 316.506 271.656 316.506 271.906C316.631 272.155 316.506 272.405 316.256 272.405H316.131C316.007 272.53 315.882 272.405 315.757 272.155ZM341.216 271.781C340.967 271.781 340.842 271.531 340.842 271.282C340.842 271.032 341.091 270.907 341.341 270.907C341.591 270.907 341.715 271.157 341.715 271.406C341.715 271.656 341.466 271.781 341.216 271.781ZM319.875 271.032C319.875 270.782 320 270.533 320.25 270.533C320.499 270.533 320.749 270.658 320.749 270.907C320.749 271.157 320.624 271.406 320.375 271.406C320.375 271.406 320.375 271.406 320.25 271.406C320.125 271.406 319.875 271.282 319.875 271.032ZM337.098 271.032C336.848 271.032 336.723 270.782 336.723 270.533C336.723 270.283 336.973 270.158 337.223 270.158C337.472 270.158 337.597 270.408 337.597 270.658C337.472 270.907 337.347 271.032 337.098 271.032ZM323.994 270.283C323.994 270.034 324.119 269.909 324.368 269.784C324.618 269.784 324.867 269.909 324.867 270.158C324.867 270.408 324.743 270.658 324.493 270.658C324.243 270.658 324.119 270.533 323.994 270.283ZM332.855 270.533C332.605 270.533 332.48 270.283 332.48 270.034C332.48 269.784 332.73 269.659 332.979 269.659C333.229 269.659 333.354 269.909 333.354 270.158C333.354 270.408 333.104 270.658 332.855 270.533C332.855 270.658 332.855 270.533 332.855 270.533ZM328.237 270.034C328.237 269.784 328.362 269.659 328.611 269.659C328.861 269.659 328.986 269.784 328.986 270.034C328.986 270.283 328.736 270.408 328.611 270.408C328.487 270.408 328.237 270.283 328.237 270.034Z" fill="white"/>
<path opacity="0.8" d="M244.746 299.112H244.621C244.621 299.112 244.496 299.112 244.496 298.987L244.371 298.862V298.738C244.371 298.613 244.371 298.488 244.496 298.488L244.621 298.363C244.746 298.363 244.871 298.363 244.995 298.363C244.995 298.363 245.12 298.363 245.12 298.488C245.245 298.613 245.245 298.613 245.245 298.738V298.862C245.245 298.862 245.245 298.987 245.12 298.987L244.995 299.112C244.871 299.112 244.871 299.112 244.746 299.112Z" fill="white"/>
</g>
<path d="M313.261 171.317L310.391 168.197C305.274 173.064 298.285 176.059 290.922 176.059C278.567 176.059 268.832 167.698 266.586 156.341L262.218 157.464L258.224 158.462C259.347 164.453 262.093 169.819 266.211 174.187C278.816 187.79 301.28 187.79 316.007 174.187L313.261 171.317Z" fill="white"/>
<path d="M319.501 124.392L315.632 128.011L313.011 130.507C317.504 135.374 320 141.989 319.501 149.352C319.002 156.715 315.507 163.33 310.39 168.197L312.637 170.693L315.882 174.187C322.995 167.573 327.238 158.587 327.987 149.352C328.611 139.992 325.616 131.006 319.501 124.392Z" fill="#263238"/>
<path d="M319.501 124.392C306.771 110.789 284.432 110.789 269.706 124.392C260.221 133.253 255.853 146.232 258.224 158.338L263.216 157.09L266.586 156.216C266.211 153.97 265.962 151.724 266.211 149.352C267.21 134.626 280.064 122.645 294.79 122.645C302.154 122.645 308.643 125.64 313.136 130.508L316.506 127.388L319.501 124.392Z" fill="#407BFF"/>
<path d="M355.318 171.317L358.688 168.197C354.195 163.33 351.699 156.715 352.198 149.352C353.072 136.997 362.182 126.638 373.789 123.643L372.915 119.4L372.166 115.531C366.051 117.154 360.435 120.274 355.693 124.642C341.091 138.245 339.469 160.709 352.074 174.437L355.318 171.317Z" fill="white"/>
<path d="M401.993 174.187L398.749 170.568L396.502 168.072C391.385 172.939 384.397 175.934 377.033 175.934C369.67 175.934 363.181 172.939 358.688 168.072L356.067 170.568L352.323 174.062C358.438 180.677 367.174 184.421 376.409 184.421C385.645 184.546 394.88 180.802 401.993 174.187Z" fill="#263238"/>
<path d="M401.993 174.187C416.595 160.584 418.217 138.12 405.613 124.392C397.376 115.531 384.646 112.037 372.291 115.282L373.289 120.149L373.913 123.518C376.16 122.894 378.531 122.645 380.902 122.645C395.629 122.645 406.736 134.626 405.613 149.352C405.113 156.715 401.619 163.33 396.502 168.197L399.373 171.317L401.993 174.187Z" fill="#407BFF"/>
<path opacity="0.3" d="M460.899 117.278C461.648 117.278 462.272 117.528 462.771 118.027C463.27 118.526 463.52 119.15 463.395 119.899L461.898 141.365C461.773 142.862 460.4 144.235 458.902 144.235H437.437C436.688 144.235 436.064 143.986 435.565 143.486C435.066 142.987 434.816 142.363 434.941 141.614L436.438 120.149C436.563 118.651 437.936 117.278 439.434 117.278H460.899ZM460.899 116.155H439.434C437.312 116.155 435.44 117.902 435.315 120.024L433.818 141.49C433.693 143.611 435.315 145.358 437.437 145.358H458.902C461.024 145.358 462.896 143.611 463.021 141.49L464.518 120.024C464.643 117.902 463.021 116.155 460.899 116.155Z" fill="#407BFF"/>
<path opacity="0.3" d="M458.279 154.344C459.027 154.344 459.651 154.594 460.151 155.093C460.65 155.592 460.899 156.216 460.775 156.965L459.277 178.43C459.152 179.928 457.779 181.301 456.282 181.301H434.816C434.067 181.301 433.443 181.051 432.944 180.552C432.445 180.053 432.195 179.429 432.32 178.68L433.818 157.214C433.943 155.717 435.315 154.344 436.813 154.344H458.279ZM458.279 153.221H436.688C434.567 153.221 432.695 154.968 432.57 157.089L431.072 178.555C430.947 180.677 432.57 182.424 434.691 182.424H456.157C458.279 182.424 460.151 180.677 460.275 178.555L461.773 157.089C462.023 154.968 460.4 153.221 458.279 153.221Z" fill="#407BFF"/>
<path d="M426.704 273.403C427.328 273.403 427.827 273.653 428.202 274.027C428.576 274.402 428.826 275.026 428.701 275.65C428.576 277.022 427.453 278.021 426.08 278.021C425.456 278.021 424.957 277.771 424.582 277.397C424.208 277.022 423.958 276.398 424.083 275.774C424.333 274.526 425.456 273.403 426.704 273.403ZM426.704 272.28C424.832 272.28 423.21 273.778 423.085 275.65C422.96 277.522 424.333 279.019 426.205 279.019C428.077 279.019 429.699 277.522 429.824 275.65C430.074 273.902 428.701 272.28 426.704 272.28Z" fill="#407BFF"/>
<path d="M427.078 272.405L426.454 272.28L426.579 271.281H427.078V272.405Z" fill="#407BFF"/>
<path d="M427.328 269.035H426.829L426.954 266.789H427.453L427.328 269.035ZM427.578 264.542H427.078L427.203 262.296H427.702L427.578 264.542ZM427.952 260.05H427.453L427.578 257.803H428.077L427.952 260.05ZM428.202 255.432H427.702L427.827 253.186H428.326L428.202 255.432ZM428.576 250.939H428.077L428.202 248.693H428.701L428.576 250.939ZM428.826 246.446H428.326L428.451 244.2H428.95L428.826 246.446ZM429.2 241.954H428.701L428.826 239.707H429.325L429.2 241.954ZM429.574 237.461H429.075L429.2 235.214H429.699L429.574 237.461ZM429.824 232.968H429.325L429.45 230.722H429.949L429.824 232.968ZM430.198 228.475H429.699L429.824 226.229H430.323L430.198 228.475ZM430.448 223.982H429.949L430.074 221.736H430.573L430.448 223.982Z" fill="#407BFF"/>
<path d="M430.401 218.226L430.321 219.346L430.819 219.382L430.899 218.261L430.401 218.226Z" fill="#407BFF"/>
<path d="M453.91 218.866H256.227C255.104 218.866 254.106 218.366 253.357 217.618C252.608 216.869 252.234 215.746 252.358 214.622L253.357 201.019C253.482 198.773 255.478 196.901 257.725 196.901H455.408C456.531 196.901 457.53 197.4 458.278 198.149C459.027 198.898 459.402 200.021 459.277 201.144L458.278 214.747C458.154 216.994 456.157 218.866 453.91 218.866ZM257.725 198.149C256.102 198.149 254.605 199.522 254.48 201.144L253.482 214.747C253.482 215.496 253.731 216.245 254.23 216.869C254.73 217.368 255.478 217.742 256.227 217.742H453.786C455.408 217.742 456.906 216.37 457.03 214.747L458.029 201.144C458.029 200.395 457.779 199.646 457.28 199.022C456.781 198.523 456.032 198.149 455.283 198.149H257.725Z" fill="#407BFF"/>
<path opacity="0.8" fill-rule="evenodd" clip-rule="evenodd" d="M449.667 205.762H262.342C261.344 205.762 260.595 204.888 260.595 203.89C260.72 202.891 261.594 202.018 262.592 202.018H449.917C450.915 202.018 451.664 202.891 451.664 203.89C451.539 204.888 450.666 205.762 449.667 205.762Z" fill="white"/>
<path opacity="0.8" fill-rule="evenodd" clip-rule="evenodd" d="M418.467 213.499H261.718C260.72 213.499 259.971 212.626 259.971 211.627C260.096 210.629 260.97 209.755 261.968 209.755H418.592C419.59 209.755 420.339 210.629 420.339 211.627C420.339 212.75 419.466 213.499 418.467 213.499Z" fill="white"/>
</svg>
