<svg width="648" height="476" viewBox="0 0 648 476" fill="none" xmlns="http://www.w3.org/2000/svg">
<path opacity="0.6" d="M112.563 457.187C83.582 457.187 56.2794 456.48 37.901 431.802C22.35 410.953 17.2841 385.51 15.9882 360.627C13.1608 306.296 63.8488 270.075 55.7198 215.773C47.6793 161.972 39.0496 109.319 103.669 84.8479C173.383 58.4331 161.249 111.528 262.801 94.1828C325.624 83.4638 293.138 33.0785 393.365 6.57547C454.185 -9.53251 519.275 2.45277 540.452 61.9669C561.481 121.039 534.561 130.757 529.289 160.382C520.335 210.443 545.105 237.182 566.841 256.941C612.198 298.198 629.575 296.225 634.906 357.182C639.265 407.155 611.55 457.216 561.481 457.216C511.382 457.187 112.563 457.187 112.563 457.187Z" fill="#AFCDF9"/>
<path opacity="0.6" d="M112.564 457.187C76.808 457.187 15.1342 368.048 12.8075 321.285C9.71492 259.474 56.7803 221.368 100.547 185.825C122.106 168.303 140.102 148.72 154.21 125.074C167.404 102.899 173.177 73.2454 189.523 53.0147C234.91 -3.20123 289.603 48.0086 337.906 63.3804C400.434 83.2577 463.639 34.6687 525.696 50.8061C588.342 67.1202 611.639 123.896 606.072 181.79C603.48 208.764 594.851 232.499 589.667 258.679C583.688 288.921 595.381 310.36 598.621 339.16C603.097 379.15 597.59 449.442 539.98 457.187H112.564Z" fill="#AFCDF9"/>
<path d="M508.083 255.557C519.363 251.14 536.269 226.168 533.029 213.299C529.407 200.018 519.334 210.472 515.711 217.717C512.089 225.373 510.881 234.62 510.086 243.071C509.673 247.106 509.673 251.523 508.466 255.145L508.083 255.557Z" fill="#9CC0F7"/>
<path d="M495.418 270.34C500.69 259.444 496.184 229.643 485.081 222.369C473.417 215.066 473.123 229.584 475.361 237.358C477.894 245.427 483.284 253.054 488.409 259.798C490.853 263.037 493.857 266.276 495.418 269.751V270.34Z" fill="#9CC0F7"/>
<path d="M481.723 307.091C486.995 296.195 482.489 266.394 471.385 259.12C459.722 251.817 459.427 266.335 461.666 274.109C464.199 282.178 469.588 289.805 474.713 296.548C477.158 299.788 480.162 303.027 481.723 306.502V307.091Z" fill="#9CC0F7"/>
<path d="M502.251 282.09C514.357 282.708 540.069 266.983 542.454 253.937C544.663 240.362 531.174 245.721 524.871 250.816C518.421 256.293 513.473 264.215 509.261 271.577C507.229 275.081 505.403 279.115 502.811 281.913L502.251 282.09Z" fill="#9CC0F7"/>
<path d="M530.762 290.158C532.971 276.583 523.34 275.405 516.978 280.44C502.163 292.161 498.452 313.599 495.86 316.396C495.86 316.396 528.376 303.204 530.762 290.158Z" fill="#9CC0F7"/>
<path d="M520.659 233.147C510.911 247.106 503.577 262.625 497.922 278.644C492.179 294.899 488.144 311.832 486.023 328.971C484.845 338.364 483.785 348.082 484.698 357.535C484.757 358.124 485.552 358.124 485.611 357.535C486.406 349.26 486.524 340.926 487.407 332.622C488.32 324.082 489.646 315.572 491.413 307.15C494.947 290.306 500.249 273.785 507.465 258.148C511.411 249.609 515.918 241.245 520.866 233.265C520.924 233.147 520.748 233.029 520.659 233.147Z" fill="#0050C9"/>
<path d="M523.722 265.098C516.801 268.043 510.675 273.079 505.58 278.526C500.425 284.033 496.007 290.335 492.768 297.137C492.503 297.697 493.327 298.198 493.592 297.638C500.219 284.416 510.616 272.283 523.811 265.304C523.987 265.245 523.87 265.039 523.722 265.098Z" fill="#0050C9"/>
<path d="M489.881 245.515C492.414 252.612 494.034 260.269 494.771 267.778C495.124 271.636 495.242 275.493 495.154 279.351C495.124 281.118 495.006 282.914 494.859 284.681C494.771 285.682 494.682 286.683 494.506 287.685C494.358 288.509 494.093 289.334 494.152 290.158C494.182 290.394 494.476 290.512 494.594 290.276C495.419 288.833 495.566 286.654 495.831 285.034C496.125 283.297 496.302 281.56 496.42 279.793C496.685 275.699 496.449 271.577 495.978 267.513C495.065 259.856 493.21 252.465 490.058 245.427C490.029 245.339 489.852 245.398 489.881 245.515Z" fill="#0050C9"/>
<path d="M514.062 290.512C507.229 297.461 501.339 305.442 496.567 313.952C494.182 318.193 492.032 322.551 490.147 327.027C489.234 329.206 488.379 331.444 487.584 333.682C486.818 335.891 485.994 338.129 485.729 340.485C485.699 340.72 486.082 340.809 486.17 340.602C487.142 338.629 487.702 336.509 488.438 334.448C489.234 332.239 490.088 330.06 491.001 327.881C492.915 323.317 495.095 318.84 497.51 314.541C502.281 306.031 507.877 298.109 514.18 290.659C514.239 290.541 514.15 290.423 514.062 290.512Z" fill="#0050C9"/>
<path d="M472.033 271.312C475.45 280.529 478.454 289.864 480.633 299.464C481.694 304.117 482.666 308.799 483.549 313.481C484.492 318.34 485.081 323.317 486.259 328.117C486.377 328.617 487.26 328.529 487.201 327.999C486.612 323.14 485.493 318.281 484.58 313.481C483.696 308.71 482.754 303.94 481.664 299.199C479.426 289.628 476.687 280.058 472.445 271.164C472.357 270.87 471.945 271.047 472.033 271.312Z" fill="#0050C9"/>
<path d="M519.128 223.724C518.863 223.753 518.657 223.812 518.48 224.018C518.215 224.372 518.215 224.725 518.48 225.049C518.48 225.049 518.48 225.049 518.509 225.079C518.215 225.137 518.215 225.638 518.568 225.638C518.774 225.638 518.863 225.461 518.833 225.285C518.922 225.314 519.039 225.344 519.157 225.373C520.512 225.609 520.512 223.518 519.128 223.724Z" fill="#0F54D9"/>
<path d="M522.162 229.731C521.072 229.731 521.072 231.439 522.162 231.439C523.281 231.439 523.281 229.731 522.162 229.731Z" fill="#0F54D9"/>
<path d="M527.522 221.103C527.345 220.838 527.168 220.691 526.903 220.514C526.226 220.043 525.46 220.573 525.283 221.25C525.018 221.81 525.195 222.546 525.931 222.782C526.461 222.929 526.903 222.899 527.345 222.517C527.698 222.193 527.787 221.515 527.522 221.103Z" fill="#0F54D9"/>
<path d="M522.162 214.831C521.572 214.831 521.572 215.744 522.162 215.744C522.78 215.773 522.78 214.831 522.162 214.831Z" fill="#0F54D9"/>
<path d="M519.363 226.787C518.598 226.787 518.598 227.964 519.363 227.964C520.1 227.964 520.1 226.787 519.363 226.787Z" fill="#0F54D9"/>
<path d="M488.35 247.636C487.466 247.636 487.466 248.99 488.35 248.99C489.233 248.99 489.233 247.636 488.35 247.636Z" fill="#0F54D9"/>
<path d="M485.552 239.331C484.874 239.331 484.874 240.391 485.552 240.391C486.229 240.391 486.229 239.331 485.552 239.331Z" fill="#0F54D9"/>
<path d="M481.517 234.796C480.722 234.796 480.722 236.033 481.517 236.033C482.312 236.033 482.312 234.796 481.517 234.796Z" fill="#0F54D9"/>
<path d="M488.762 238.301C487.79 238.301 487.79 239.802 488.762 239.802C489.734 239.802 489.734 238.301 488.762 238.301Z" fill="#0F54D9"/>
<path d="M488.762 230.291C487.849 230.291 487.849 231.704 488.762 231.704C489.675 231.704 489.675 230.291 488.762 230.291Z" fill="#0F54D9"/>
<path d="M531.056 260.534C530.939 260.593 530.85 260.622 530.732 260.681C530.379 260.858 530.379 261.476 530.732 261.653C530.85 261.712 530.939 261.771 531.056 261.8C531.557 262.036 532.176 261.741 532.176 261.152C532.176 260.593 531.557 260.298 531.056 260.534Z" fill="#0F54D9"/>
<path d="M527.404 254.468C526.521 254.468 526.521 255.822 527.404 255.822C528.288 255.822 528.288 254.468 527.404 254.468Z" fill="#0F54D9"/>
<path d="M525.784 261.299C524.93 261.299 524.93 262.654 525.784 262.654C526.668 262.654 526.668 261.299 525.784 261.299Z" fill="#0F54D9"/>
<path d="M535.062 252.318C534.031 252.318 534.031 253.908 535.062 253.908C536.093 253.937 536.093 252.318 535.062 252.318Z" fill="#0F54D9"/>
<path d="M518.539 298.021C517.773 298.021 517.773 299.199 518.539 299.199C519.305 299.199 519.305 298.021 518.539 298.021Z" fill="#0F54D9"/>
<path d="M519.746 289.481C518.892 289.481 518.892 290.806 519.746 290.806C520.6 290.806 520.6 289.481 519.746 289.481Z" fill="#0F54D9"/>
<path d="M516.536 287.596C515.829 287.596 515.829 288.686 516.536 288.686C517.243 288.686 517.243 287.596 516.536 287.596Z" fill="#0F54D9"/>
<path d="M511.706 299.552C510.851 299.552 510.851 300.848 511.706 300.848C512.56 300.877 512.56 299.552 511.706 299.552Z" fill="#0F54D9"/>
<path d="M521.366 290.836C520.718 290.836 520.718 291.866 521.366 291.866C522.014 291.866 522.014 290.836 521.366 290.836Z" fill="#0F54D9"/>
<path d="M469.559 276.288C469.441 276.141 469.412 276.112 469.53 276.229C469.5 276.141 469.471 276.053 469.441 275.964C469.294 275.582 468.852 275.611 468.705 275.964C468.617 276.112 468.617 276.141 468.705 276.053C468.528 276.141 468.528 276.171 468.676 276.141C467.586 276.112 467.821 277.908 468.882 277.584C469.206 277.496 469.589 277.26 469.647 276.907C469.647 276.701 469.677 276.494 469.559 276.288Z" fill="#0F54D9"/>
<path d="M466.231 266.865C465.259 266.865 465.259 268.367 466.231 268.367C467.203 268.367 467.203 266.865 466.231 266.865Z" fill="#0F54D9"/>
<path d="M467.026 276.2C466.172 276.2 466.172 277.525 467.026 277.525C467.88 277.525 467.88 276.2 467.026 276.2Z" fill="#0F54D9"/>
<path d="M468.646 268.19C467.821 268.19 467.821 269.456 468.646 269.456C469.471 269.456 469.471 268.19 468.646 268.19Z" fill="#0F54D9"/>
<path d="M528.376 211.12C528.199 210.944 527.905 211.179 528.022 211.385C530.732 215.478 530.025 219.837 528.612 224.283C527.551 227.64 525.166 230.615 524.635 234.119C524.577 234.502 524.959 234.737 525.283 234.502C528.67 231.881 530.231 226.404 531.144 222.399C532.057 218.364 531.351 214.094 528.376 211.12Z" fill="#C9DAFB"/>
<path d="M539.421 249.02C539.244 248.578 538.626 248.755 538.714 249.226C539.863 256.676 533.324 260.475 530.32 266.247C530.143 266.571 530.497 266.924 530.821 266.747C536.093 263.891 541.777 255.056 539.421 249.02Z" fill="#C9DAFB"/>
<path d="M527.345 282.708C527.168 282.296 526.462 282.59 526.609 283.032C527.257 285.093 527.404 287.155 527.051 289.275C526.638 291.631 525.077 293.103 524.164 295.164C524.017 295.518 524.253 296.048 524.724 295.871C529.525 293.987 528.965 286.477 527.345 282.708Z" fill="#C9DAFB"/>
<path d="M484.61 224.548C482.96 223.194 481.016 222.929 478.955 223.253C478.366 223.341 478.542 224.254 479.102 224.283C481.193 224.342 482.813 225.491 484.197 226.963C485.257 228.082 485.847 229.908 487.378 230.468C487.849 230.644 488.232 230.202 488.262 229.79C488.438 227.876 485.964 225.667 484.61 224.548Z" fill="#C9DAFB"/>
<path d="M466.378 259.886C465.818 259.709 465.436 260.593 465.966 260.828C473.123 264.215 473.594 271.989 478.041 277.555C478.306 277.879 478.748 277.525 478.66 277.201C477.423 270.487 473.182 262.094 466.378 259.886Z" fill="#C9DAFB"/>
<path d="M449.325 440.578C448.53 411.601 447.705 381.034 458.985 353.648C465.435 338.364 475.096 323.876 492.002 317.427C511.323 310.978 516.153 303.734 529.024 286.831C537.889 274.757 556.385 254.644 574.116 262.683C591.817 270.723 587.811 292.455 581.361 306.944C578.151 314.188 571.701 321.432 570.081 329.471C568.461 339.13 575.706 342.34 578.121 351.204C583.747 367.312 568.461 385.01 557.18 395.464C527.404 423.645 473.476 421.231 453.33 459.042L449.325 440.578Z" fill="#71A5F4"/>
<path d="M449.914 470.998C452.447 454.536 459.015 439.106 466.79 424.47C474.654 409.717 483.402 395.317 492.797 381.506C502.458 367.312 512.825 353.589 523.634 340.249C532.823 328.912 542.749 318.163 551.614 306.59C556.503 300.171 561.186 293.515 565.133 286.477C568.52 280.411 571.347 273.903 572.113 266.924C572.172 266.453 571.318 266.335 571.259 266.806C569.374 280.47 561.127 292.809 552.822 303.439C543.868 314.895 534.119 325.702 524.901 336.951C514.209 350.026 503.871 363.425 494.329 377.383C484.874 391.223 476.068 405.594 468.027 420.318C459.486 435.955 451.298 453.005 449.561 470.968C449.502 471.145 449.885 471.204 449.914 470.998Z" fill="#0F54D9"/>
<path d="M538.596 321.373C544.044 315.955 547.667 308.946 550.642 301.937C553.793 294.575 556.179 286.919 558.005 279.145C558.977 274.934 559.89 270.693 560.626 266.423C560.715 265.864 559.89 265.658 559.802 266.188C557.328 281.412 553.646 296.872 545.871 310.33C543.662 314.129 541.129 317.692 538.36 321.108C538.213 321.285 538.419 321.55 538.596 321.373Z" fill="#0F54D9"/>
<path d="M534.914 326.85C536.829 326.261 538.596 325.083 540.334 324.082C542.189 323.022 544.045 321.933 545.871 320.843C549.699 318.546 553.469 316.19 557.092 313.599C564.161 308.593 570.788 302.88 576.118 295.989C579.123 292.102 581.626 287.861 583.511 283.297C583.658 282.944 583.04 282.679 582.863 283.032C575.971 299.346 561.127 310.301 546.489 319.341C544.486 320.578 542.454 321.785 540.422 322.993C538.507 324.112 536.387 325.083 534.738 326.556C534.59 326.674 534.738 326.909 534.914 326.85Z" fill="#0F54D9"/>
<path d="M513.237 352.175C516.006 349.142 518.097 345.402 519.982 341.78C521.896 338.099 523.516 334.242 524.9 330.325C527.787 322.168 529.583 313.658 530.673 305.088C531.292 300.288 531.881 295.312 531.733 290.482C531.704 289.805 530.761 289.834 530.703 290.482C530.349 294.634 530.261 298.786 529.819 302.939C529.377 307.209 528.729 311.449 527.875 315.66C526.167 323.994 523.663 332.21 519.982 339.866C517.95 344.107 515.358 347.935 512.943 351.94C512.854 352.117 513.09 352.323 513.237 352.175Z" fill="#0F54D9"/>
<path d="M498.275 373.319C507.612 356.033 508.26 335.508 505.697 316.426C505.638 315.866 504.755 315.866 504.814 316.426C507.023 335.685 506.345 355.267 497.745 373.025C497.598 373.348 498.098 373.643 498.275 373.319Z" fill="#0F54D9"/>
<path d="M480.015 399.233C483.254 396.465 484.992 391.577 486.023 387.601C487.201 383.037 487.525 378.296 487.407 373.584C487.171 363.483 484.992 353.53 482.842 343.724C482.282 341.191 481.723 338.659 481.193 336.126C480.692 333.8 480.515 331.238 479.72 328.971C479.543 328.499 478.866 328.558 478.836 329.088C478.778 331.032 479.396 333.064 479.779 334.978C480.221 337.069 480.662 339.189 481.134 341.28C482.194 345.991 483.254 350.674 484.138 355.415C485.934 365.015 487.26 375.145 485.522 384.833C485.08 387.336 484.373 389.81 483.402 392.166C482.4 394.61 480.928 396.701 479.72 399.027C479.691 399.204 479.897 399.351 480.015 399.233Z" fill="#0F54D9"/>
<path d="M466.29 425.236C470.59 417.933 471.591 408.892 471.179 400.558C470.737 391.636 468.764 382.86 466.584 374.202C465.377 369.373 464.051 364.573 462.903 359.744C462.755 359.066 461.695 359.361 461.872 360.038C465.76 376.529 471.827 393.491 469.795 410.688C469.206 415.665 467.733 420.347 465.76 424.941C465.612 425.265 466.084 425.56 466.29 425.236Z" fill="#0F54D9"/>
<path d="M458.985 440.224C459.928 437.074 460.134 433.569 460.281 430.301C460.429 426.796 460.34 423.263 460.046 419.758C459.751 416.401 459.28 413.044 458.632 409.717C458.308 408.067 457.955 406.448 457.572 404.828C457.189 403.238 456.894 401.56 456.099 400.117C455.922 399.763 455.304 399.91 455.333 400.323C455.451 401.795 455.981 403.209 456.335 404.652C456.747 406.271 457.1 407.891 457.424 409.51C458.131 412.985 458.632 416.49 458.956 420.023C459.25 423.351 459.398 426.708 459.339 430.036C459.28 433.452 458.75 436.779 458.514 440.166C458.544 440.401 458.927 440.46 458.985 440.224Z" fill="#0F54D9"/>
<path d="M506.61 363.13C510.38 361.187 513.944 358.831 517.743 356.917C521.602 354.973 525.519 353.118 529.466 351.322C537.418 347.67 545.429 344.136 553.087 339.837C555.119 338.718 557.092 337.51 559.066 336.274C560.951 335.066 562.983 333.829 564.514 332.18C564.603 332.092 564.485 331.974 564.396 332.004C562.629 332.975 561.039 334.271 559.331 335.39C557.534 336.568 555.678 337.687 553.794 338.747C550.053 340.868 546.195 342.752 542.336 344.578C534.384 348.318 526.255 351.704 518.391 355.709C514.327 357.771 509.85 359.861 506.286 362.718C506.051 362.894 506.345 363.248 506.61 363.13Z" fill="#0F54D9"/>
<path d="M491.501 383.596C496.125 380.416 500.926 377.707 506.139 375.586C511.264 373.496 516.565 371.906 521.896 370.433C532.47 367.518 543.426 365.427 553.646 361.304C559.065 359.096 564.985 356.652 569.521 352.882C569.786 352.647 569.433 352.205 569.138 352.382C566.782 353.795 564.514 355.356 562.07 356.652C559.537 357.977 556.915 359.155 554.235 360.156C549.022 362.099 543.721 363.748 538.36 365.221C527.757 368.077 516.948 370.374 506.758 374.556C501.279 376.794 495.86 379.562 491.236 383.302C491.059 383.42 491.295 383.744 491.501 383.596Z" fill="#0F54D9"/>
<path d="M474.036 411.955C478.218 407.685 482.43 403.827 487.555 400.706C492.65 397.614 498.128 395.287 503.754 393.373C515.063 389.486 526.874 387.248 538.449 384.274C544.634 382.683 551.025 381.093 556.768 378.266C557.092 378.09 556.857 377.56 556.503 377.677C550.937 379.474 545.429 381.388 539.745 382.86C533.825 384.391 527.846 385.746 521.926 387.189C510.38 390.016 498.658 393.196 488.291 399.204C482.842 402.355 477.334 406.477 473.712 411.69C473.535 411.896 473.859 412.131 474.036 411.955Z" fill="#0F54D9"/>
<path d="M463.727 430.094C472.799 424.058 482.282 419.052 492.444 415.135C502.752 411.16 513.355 408.038 523.899 404.858C526.697 404.004 529.524 403.179 532.293 402.266C534.973 401.412 537.86 400.617 540.363 399.292C540.599 399.174 540.422 398.88 540.216 398.909C537.594 399.351 535.003 400.323 532.44 401.088C529.937 401.825 527.433 402.62 524.93 403.385C519.628 404.975 514.327 406.536 509.055 408.185C498.599 411.454 488.202 415.106 478.424 420.053C473.093 422.732 467.939 425.795 463.433 429.741C463.285 429.918 463.521 430.212 463.727 430.094Z" fill="#0F54D9"/>
<path d="M552.969 328.323C553.528 328.323 553.528 327.439 552.969 327.439C552.38 327.439 552.38 328.323 552.969 328.323Z" fill="#0F54D9"/>
<path d="M552.969 335.272C553.145 335.272 553.145 334.978 552.969 334.978C552.792 334.978 552.792 335.272 552.969 335.272Z" fill="#0F54D9"/>
<path d="M563.218 328.087C564.249 328.087 564.249 326.497 563.218 326.497C562.188 326.468 562.188 328.087 563.218 328.087Z" fill="#0F54D9"/>
<path d="M551.143 330.679C552.38 330.679 552.409 328.735 551.143 328.735C549.906 328.735 549.906 330.679 551.143 330.679Z" fill="#0F54D9"/>
<path d="M555.855 321.079C555.944 321.226 556.032 321.373 556.12 321.52C556.326 321.874 556.857 321.874 557.063 321.52C557.151 321.373 557.239 321.226 557.328 321.079C557.652 320.519 557.239 319.783 556.591 319.783C555.944 319.783 555.502 320.519 555.855 321.079Z" fill="#0F54D9"/>
<path d="M545.134 336.98C545.252 336.892 545.37 336.804 545.458 336.715C545.665 336.568 545.665 336.156 545.458 335.979C545.341 335.891 545.223 335.802 545.134 335.714C545.017 335.626 544.899 335.537 544.751 335.479C544.575 335.42 544.339 335.449 544.162 335.537C543.838 335.685 543.603 336.009 543.603 336.362C543.603 336.686 543.78 336.98 544.045 337.128C544.221 337.216 544.427 337.275 544.604 337.245C544.84 337.187 544.987 337.098 545.134 336.98Z" fill="#0F54D9"/>
<path d="M491.118 330.914C491.148 331.591 491.266 332.357 491.56 332.976C491.707 333.299 492.238 333.299 492.385 332.976C492.679 332.357 492.827 331.591 492.827 330.914C492.886 329.795 491.089 329.795 491.118 330.914Z" fill="#0F54D9"/>
<path d="M491.383 342.134C491.236 342.134 491.03 342.134 490.883 342.193C490.559 342.281 490.352 342.487 490.264 342.811C490.352 342.693 490.47 342.546 490.559 342.428C490.5 342.487 490.411 342.517 490.382 342.575C490.529 342.517 490.676 342.458 490.794 342.399C490.47 342.399 490.176 342.664 490.205 342.988C490.205 343.312 490.47 343.577 490.794 343.577C490.647 343.518 490.5 343.459 490.382 343.4C490.441 343.459 490.5 343.488 490.559 343.547C490.47 343.429 490.352 343.282 490.264 343.164C490.382 343.459 490.588 343.694 490.883 343.783C491.03 343.812 491.236 343.812 491.383 343.842C491.825 343.871 492.237 343.429 492.237 342.988C492.208 342.546 491.855 342.104 491.383 342.134Z" fill="#0F54D9"/>
<path d="M496.803 337.334C498.069 337.334 498.069 335.361 496.803 335.361C495.536 335.361 495.536 337.334 496.803 337.334Z" fill="#0F54D9"/>
<path d="M497.421 344.872C498.305 344.872 498.305 343.488 497.421 343.488C496.537 343.488 496.537 344.872 497.421 344.872Z" fill="#0F54D9"/>
<path d="M500.631 401.206C500.631 401.236 500.661 401.265 500.661 401.294C500.69 401.353 500.69 401.412 500.72 401.471C500.779 401.618 500.838 401.766 500.926 401.883C500.985 401.942 501.044 402.031 501.103 402.09C501.368 402.413 501.986 402.384 502.222 402.09C502.251 402.06 502.281 402.001 502.31 401.972C502.428 401.825 502.516 401.677 502.575 401.501C502.605 401.442 502.605 401.353 502.634 401.294C502.634 401.265 502.664 401.236 502.664 401.206C502.87 400.558 502.31 399.881 501.662 399.881C500.985 399.881 500.425 400.558 500.631 401.206Z" fill="#0F54D9"/>
<path d="M508.613 400.912C508.613 401.029 508.613 401.177 508.613 401.295C508.613 401.206 508.643 401.118 508.643 401C508.613 401.088 508.613 401.177 508.584 401.265C508.437 401.972 509.026 402.531 509.703 402.384C509.791 402.355 509.88 402.355 509.968 402.325C509.88 402.325 509.791 402.355 509.674 402.355C509.791 402.355 509.939 402.355 510.056 402.355C510.321 402.355 510.587 402.266 510.793 402.149C511.058 402.001 511.264 401.736 511.382 401.442C511.588 400.912 511.5 400.234 511.087 399.822C510.704 399.469 510.174 399.292 509.644 399.439C509.084 399.675 508.613 400.293 508.613 400.912Z" fill="#0F54D9"/>
<path d="M496.478 417.933C496.39 417.756 496.302 417.52 496.154 417.373C495.831 417.079 495.389 417.079 495.035 417.373C494.888 417.52 494.8 417.726 494.711 417.933C494.564 418.256 494.505 418.61 494.711 418.963C494.888 419.258 495.241 419.464 495.595 419.464C495.948 419.464 496.272 419.258 496.478 418.963C496.685 418.61 496.626 418.256 496.478 417.933Z" fill="#0F54D9"/>
<path d="M498.01 408.833C498.864 408.833 498.864 407.508 498.01 407.508C497.156 407.508 497.156 408.833 498.01 408.833Z" fill="#0F54D9"/>
<path d="M555.384 369.785C556.503 369.785 556.503 368.077 555.384 368.077C554.265 368.077 554.265 369.785 555.384 369.785Z" fill="#0F54D9"/>
<path d="M559.33 375.38C559.271 375.321 559.242 375.292 559.183 375.233C559.949 375.822 561.127 375.616 561.245 374.526C561.392 373.525 560.302 372.818 559.419 373.29C559.389 373.319 559.36 373.319 559.33 373.348C558.594 373.761 558.594 374.968 559.33 375.38C559.389 375.41 559.419 375.41 559.448 375.439C560.332 375.91 561.422 375.233 561.274 374.202C561.127 373.142 559.949 372.907 559.213 373.496C559.272 373.437 559.301 373.407 559.36 373.348C558.329 373.702 558.329 375.027 559.33 375.38Z" fill="#0F54D9"/>
<path d="M469.235 349.025C469.235 349.142 469.264 349.26 469.264 349.378C469.294 349.613 469.323 349.79 469.471 349.967C469.588 350.144 469.765 350.261 469.971 350.32C470.001 350.32 470.001 350.32 470.03 350.32C469.912 350.261 469.795 350.173 469.677 350.114L469.706 350.144C469.971 350.438 470.501 350.438 470.766 350.144L470.796 350.114C470.678 350.173 470.56 350.261 470.442 350.32C470.472 350.32 470.472 350.32 470.501 350.32C470.708 350.261 470.884 350.144 471.002 349.967C471.149 349.79 471.179 349.613 471.208 349.378C471.208 349.26 471.238 349.142 471.238 349.025C471.267 348.789 471.12 348.465 470.943 348.318C470.766 348.141 470.472 347.994 470.236 348.023C469.971 348.023 469.706 348.112 469.529 348.318C469.353 348.494 469.206 348.76 469.235 349.025Z" fill="#0F54D9"/>
<path d="M469.795 364.279C469.618 364.014 469.412 363.601 469.029 363.631C468.646 363.66 468.469 364.014 468.263 364.279C467.88 364.838 468.381 365.604 469.029 365.604C469.677 365.574 470.177 364.838 469.795 364.279Z" fill="#0F54D9"/>
<path d="M478.189 358.271C478.071 358.094 477.982 357.888 477.806 357.771C477.599 357.623 477.393 357.623 477.187 357.771C477.04 357.888 476.922 358.124 476.804 358.271C476.48 358.772 476.922 359.449 477.482 359.449C478.071 359.449 478.513 358.772 478.189 358.271Z" fill="#0F54D9"/>
<path d="M473.123 355.238C473.27 355.12 473.417 355.032 473.564 354.944C473.947 354.708 473.947 354.148 473.564 353.942C473.417 353.854 473.27 353.766 473.123 353.648C472.858 353.471 472.445 353.501 472.18 353.648C471.886 353.825 471.709 354.119 471.709 354.443C471.709 354.767 471.886 355.091 472.18 355.238C472.475 355.385 472.887 355.444 473.123 355.238Z" fill="#0F54D9"/>
<path d="M476.775 366.222C476.657 365.692 476.598 365.162 476.215 364.779C475.921 364.485 475.42 364.485 475.126 364.779C474.743 365.191 474.684 365.721 474.566 366.222C474.419 366.929 474.89 367.665 475.656 367.665C476.451 367.665 476.952 366.929 476.775 366.222Z" fill="#0F54D9"/>
<path d="M553.97 268.632C553.882 268.131 553.204 268.308 553.145 268.75C552.291 277.849 551.054 286.389 548.021 295.047C545.252 302.998 541.07 310.301 537.889 318.075C537.624 318.723 538.596 319.017 538.949 318.517C548.551 305.295 557.21 285.241 553.97 268.632Z" fill="#C9DAFB"/>
<path d="M524.635 299.964C522.338 307.238 520.777 314.777 518.598 322.109C516.359 329.56 513.414 337.01 512.471 344.784C512.383 345.432 513.414 345.697 513.679 345.108C516.948 338.041 518.892 330.237 521.072 322.787C523.222 315.454 525.548 307.798 525.755 300.112C525.784 299.464 524.842 299.375 524.635 299.964Z" fill="#C9DAFB"/>
<path d="M500.779 320.637C500.779 320.254 500.16 320.136 500.101 320.549C498.982 328.264 499.011 336.185 498.422 343.96C497.716 353.265 494.682 362.158 493.916 371.346C493.887 371.847 494.594 371.994 494.829 371.582C498.894 364.75 499.424 355.827 500.072 348.023C500.808 339.012 500.985 329.707 500.779 320.637Z" fill="#C9DAFB"/>
<path d="M481.046 365.986C480.722 355.827 478.896 345.196 475.538 335.596C475.332 335.007 474.507 335.243 474.595 335.861C476.245 345.196 478.189 354.296 478.719 363.807C479.278 373.466 477.128 382.389 476.039 391.871C475.95 392.666 477.217 392.99 477.541 392.283C481.311 384.362 481.311 374.556 481.046 365.986Z" fill="#C9DAFB"/>
<path d="M464.405 392.813C463.992 383.95 462.402 375.263 459.221 366.988C459.015 366.428 458.161 366.634 458.308 367.253C460.605 375.616 461.577 384.156 461.99 392.843C462.372 400.823 460.635 409.658 462.314 417.432C462.461 418.109 463.462 418.05 463.639 417.432C465.877 409.893 464.758 400.588 464.405 392.813Z" fill="#C9DAFB"/>
<path d="M581.008 278.202C572.437 289.864 567.371 302.644 553.97 310.006C553.47 310.301 553.911 310.978 554.412 310.772C567.43 305.177 576.737 291.395 581.744 278.497C581.891 278.055 581.244 277.849 581.008 278.202Z" fill="#C9DAFB"/>
<path d="M555.178 333.005C550.053 336.097 544.958 339.307 539.774 342.34C533.824 345.844 527.168 348.082 521.366 351.734C521.013 351.969 521.248 352.441 521.631 352.382C533.942 350.409 545.753 340.838 555.531 333.653C555.943 333.358 555.619 332.74 555.178 333.005Z" fill="#C9DAFB"/>
<path d="M555.089 351.145C545.782 361.334 532.617 360.98 521.278 367.223C520.689 367.547 521.101 368.431 521.72 368.284C533.825 365.074 547.785 362.07 555.737 351.645C556.002 351.263 555.384 350.821 555.089 351.145Z" fill="#C9DAFB"/>
<path d="M544.369 376.823C527.934 379.827 508.054 381.947 494.152 392.018C493.71 392.342 493.975 393.196 494.564 392.961C502.428 389.721 510.027 386.482 518.274 384.333C527.051 382.036 536.004 380.593 544.663 377.913C545.37 377.707 545.076 376.706 544.369 376.823Z" fill="#C9DAFB"/>
<path d="M537.801 395.817C528.729 398.85 519.098 398.88 509.938 401.53C500.278 404.357 490.853 409.187 481.576 413.044C480.898 413.339 481.134 414.252 481.87 414.163C491.854 412.75 500.808 406.006 510.262 402.737C519.304 399.616 529.2 400.293 538.007 396.347C538.331 396.229 538.125 395.699 537.801 395.817Z" fill="#C9DAFB"/>
<path d="M455.363 449.795C468.616 425.559 482.665 399.999 505.079 382.89C517.743 373.407 532.647 366.104 549.641 368.931C568.638 372.907 576.089 369.285 594.821 361.54C607.898 355.856 632.815 348.2 643.536 363.336C654.257 378.472 640.502 394.433 628.22 403.267C622.094 407.685 613.317 410.541 608.104 416.401C602.125 423.587 606.543 429.712 604.275 438.163C601.183 454.124 580.065 461.339 565.781 464.549C527.728 473.412 484.491 445.525 449.737 466.993L455.363 449.795Z" fill="#1E72EF" fill-opacity="0.89"/>
<path d="M441.196 475.12C450.768 463.282 462.962 454.036 475.803 445.967C489.145 437.604 503.076 430.006 517.243 423.145C533.088 415.459 549.376 408.686 565.84 402.472C578.858 397.584 592.2 393.52 605.041 388.161C611.845 385.334 618.56 382.212 624.892 378.443C630.547 375.115 635.937 371.14 639.854 365.81C640.119 365.427 639.501 364.926 639.206 365.309C631.254 375.439 618.855 381.594 607.162 386.276C594.497 391.371 581.45 395.523 568.638 400.264C537.388 411.837 507.052 425.736 478.601 443.169C464.699 451.68 450.562 461.486 440.901 474.855C440.813 475.061 441.078 475.267 441.196 475.12Z" fill="#0050C9"/>
<path d="M586.133 394.58C595.204 392.225 603.127 386.423 610.225 380.563C617.676 374.379 624.421 367.341 630.665 359.95C631.018 359.537 630.429 358.948 630.076 359.361C624.126 366.575 617.735 373.466 610.667 379.591C603.362 385.893 595.086 390.87 586.044 394.256C585.838 394.315 585.897 394.639 586.133 394.58Z" fill="#0050C9"/>
<path d="M580.448 397.319C582.304 397.761 584.277 397.613 586.162 397.643C588.194 397.672 590.197 397.672 592.229 397.643C596.529 397.613 600.8 397.466 605.071 397.083C613.317 396.347 621.564 394.816 629.251 391.694C633.551 389.957 637.616 387.69 641.297 384.892C641.621 384.627 641.297 384.067 640.973 384.303C627.455 394.404 609.96 396.318 593.584 396.701C591.346 396.76 589.078 396.789 586.839 396.789C584.748 396.789 582.51 396.583 580.448 396.995C580.271 396.995 580.271 397.26 580.448 397.319Z" fill="#0050C9"/>
<path d="M550.465 407.744C554.147 406.595 557.593 404.563 560.833 402.531C564.249 400.382 567.489 397.937 570.581 395.346C576.825 390.045 582.362 383.979 587.34 377.501C590.167 373.82 593.083 369.962 595.322 365.869C595.646 365.309 594.821 364.867 594.468 365.368C591.434 369.638 588.695 374.085 585.455 378.207C582.304 382.242 578.917 386.129 575.264 389.751C571.553 393.432 567.607 396.848 563.365 399.852C559.213 402.796 554.736 405.005 550.288 407.449C550.141 407.508 550.259 407.802 550.465 407.744Z" fill="#0050C9"/>
<path d="M527.963 417.933C543.986 408.185 554.383 391.518 561.451 374.585C561.628 374.144 560.862 373.82 560.685 374.261C553.234 391.164 543.279 406.978 527.669 417.461C527.404 417.667 527.669 418.139 527.963 417.933Z" fill="#0050C9"/>
<path d="M500.484 430.507C504.431 429.8 508.201 426.649 510.94 423.881C514.15 420.642 516.742 416.843 518.951 412.867C523.605 404.416 526.579 395.169 529.525 386.04C530.29 383.714 531.027 381.388 531.792 379.061C532.499 376.941 533.56 374.762 534.001 372.553C534.09 372.082 533.501 371.817 533.236 372.229C532.264 373.761 531.822 375.704 531.233 377.412C530.555 379.415 529.907 381.417 529.259 383.449C527.846 387.837 526.461 392.225 524.93 396.583C521.778 405.358 518.009 414.34 511.853 421.466C510.262 423.292 508.525 425 506.581 426.472C504.608 427.945 502.428 428.946 500.366 430.271C500.219 430.33 500.307 430.536 500.484 430.507Z" fill="#0050C9"/>
<path d="M476.686 445.319C483.755 441.373 488.939 434.364 492.62 427.297C496.538 419.729 499.13 411.542 501.486 403.356C502.782 398.85 504.019 394.286 505.373 389.81C505.58 389.191 504.578 388.897 504.372 389.545C499.63 404.975 496.479 421.82 486.583 435.012C483.696 438.841 480.221 441.991 476.363 444.848C476.097 445.025 476.363 445.496 476.686 445.319Z" fill="#0050C9"/>
<path d="M463.462 454.153C465.76 452.004 467.615 449.236 469.294 446.615C471.12 443.788 472.74 440.872 474.154 437.839C475.538 434.924 476.745 431.95 477.835 428.887C478.365 427.385 478.866 425.883 479.308 424.352C479.75 422.88 480.309 421.319 480.368 419.758C480.368 419.375 479.808 419.199 479.661 419.552C479.043 420.818 478.807 422.232 478.395 423.586C477.953 425.118 477.482 426.62 476.981 428.121C475.891 431.302 474.625 434.453 473.182 437.515C471.827 440.401 470.354 443.228 468.705 445.937C467.026 448.705 464.994 451.209 463.168 453.888C463.021 454.094 463.315 454.301 463.462 454.153Z" fill="#0050C9"/>
<path d="M539.715 413.574C542.366 413.721 545.046 413.515 547.697 413.604C550.259 413.692 552.822 413.869 555.384 414.045C560.715 414.458 566.046 415.017 571.377 415.577C576.649 416.107 581.95 416.549 587.281 416.696C589.814 416.784 592.347 416.784 594.88 416.696C597.295 416.607 599.916 416.607 602.243 415.93C602.361 415.901 602.332 415.753 602.214 415.724C599.622 415.636 596.971 416.077 594.379 416.166C591.846 416.225 589.313 416.195 586.78 416.077C581.45 415.842 576.178 415.312 570.876 414.752C565.545 414.222 560.244 413.633 554.913 413.221C552.35 413.044 549.788 412.926 547.226 412.868C544.752 412.809 542.13 412.691 539.686 413.074C539.362 413.133 539.45 413.545 539.715 413.574Z" fill="#0050C9"/>
<path d="M517.42 423.145C522.721 422.733 527.964 422.821 533.236 423.557C538.478 424.293 543.662 425.53 548.787 426.914C558.948 429.623 569.021 433.186 579.476 434.659C584.955 435.425 590.904 436.22 596.412 435.336C596.736 435.277 596.647 434.747 596.323 434.747C593.731 434.777 591.14 434.983 588.518 434.865C585.809 434.747 583.07 434.482 580.389 434.011C575.117 433.098 569.934 431.92 564.779 430.507C554.618 427.768 544.575 424.441 534.119 422.998C528.582 422.232 522.868 421.908 517.331 422.762C517.154 422.791 517.213 423.174 517.42 423.145Z" fill="#0050C9"/>
<path d="M489.439 438.104C494.976 436.602 500.337 435.425 506.11 435.336C511.735 435.248 517.36 435.984 522.868 437.074C534.119 439.341 544.987 443.199 556.002 446.32C561.775 447.969 567.725 449.707 573.733 450.119C574.086 450.148 574.175 449.589 573.821 449.501C568.343 448.293 562.865 447.204 557.446 445.672C551.791 444.082 546.224 442.315 540.599 440.637C529.701 437.398 518.509 434.394 507.052 434.423C501.132 434.423 494.711 435.189 489.292 437.692C489.056 437.81 489.233 438.163 489.439 438.104Z" fill="#0050C9"/>
<path d="M472.239 448.087C482.577 447.498 492.768 447.91 503.017 449.559C513.355 451.238 523.546 453.741 533.736 456.185C536.564 456.863 539.391 457.569 542.219 458.188C544.781 458.747 547.491 459.483 550.141 459.572C550.377 459.572 550.377 459.248 550.2 459.189C547.903 458.335 545.37 457.893 542.984 457.304C540.51 456.686 538.007 456.126 535.533 455.537C530.349 454.271 525.165 453.005 519.952 451.798C509.732 449.471 499.394 447.469 488.939 446.85C483.343 446.526 477.717 446.585 472.21 447.645C471.945 447.734 472.003 448.087 472.239 448.087Z" fill="#0050C9"/>
<path d="M594.821 407.243C595.351 407.243 595.351 406.389 594.821 406.389C594.261 406.418 594.261 407.243 594.821 407.243Z" fill="#0050C9"/>
<path d="M591.316 412.926C591.493 412.926 591.493 412.661 591.316 412.661C591.169 412.661 591.169 412.926 591.316 412.926Z" fill="#0050C9"/>
<path d="M603.539 412.043C604.511 412.043 604.511 410.512 603.539 410.512C602.567 410.512 602.567 412.043 603.539 412.043Z" fill="#0050C9"/>
<path d="M592.435 408.391C593.613 408.391 593.643 406.536 592.435 406.536C591.257 406.536 591.257 408.391 592.435 408.391Z" fill="#0050C9"/>
<path d="M600.447 402.62C600.447 402.796 600.447 402.944 600.447 403.12C600.447 403.533 600.888 403.768 601.242 403.562C601.389 403.474 601.536 403.415 601.684 403.326C602.214 403.032 602.214 402.207 601.684 401.913C601.153 401.589 600.447 402.001 600.447 402.62Z" fill="#0050C9"/>
<path d="M584.012 410.541C584.159 410.512 584.277 410.512 584.424 410.482C584.66 410.453 584.866 410.099 584.778 409.864C584.719 409.746 584.689 409.599 584.631 409.481C584.513 409.157 584.277 408.921 583.924 408.863C583.6 408.833 583.246 408.98 583.07 409.275C582.922 409.54 582.922 409.864 583.07 410.129C583.158 410.276 583.305 410.394 583.482 410.482C583.659 410.6 583.806 410.571 584.012 410.541Z" fill="#0050C9"/>
<path d="M542.454 379.591C542.395 379.739 542.307 379.856 542.248 380.004C542.16 380.18 542.13 380.386 542.071 380.563C541.983 380.887 541.865 381.152 541.836 381.506C541.806 381.859 542.248 382.094 542.513 381.888C542.778 381.712 542.984 381.476 543.22 381.24C543.338 381.123 543.456 381.034 543.573 380.887C543.691 380.74 543.78 380.563 543.868 380.416C544.457 379.533 542.955 378.679 542.454 379.591Z" fill="#0050C9"/>
<path d="M537.271 388.985C537.123 388.926 536.976 388.809 536.829 388.779C536.534 388.691 536.24 388.779 536.004 388.985C536.151 388.926 536.299 388.867 536.446 388.809C536.358 388.809 536.299 388.809 536.21 388.838C536.358 388.867 536.505 388.867 536.652 388.897C536.387 388.75 536.034 388.838 535.886 389.103C535.739 389.368 535.827 389.721 536.093 389.869C536.004 389.751 535.916 389.633 535.827 389.545C535.857 389.604 535.886 389.692 535.916 389.751C535.886 389.604 535.886 389.427 535.857 389.28C535.798 389.574 535.857 389.869 536.093 390.104C536.21 390.222 536.358 390.31 536.475 390.369C536.829 390.605 537.389 390.458 537.565 390.075C537.742 389.721 537.683 389.191 537.271 388.985Z" fill="#0050C9"/>
<path d="M544.545 387.748C545.753 387.748 545.753 385.864 544.545 385.864C543.308 385.864 543.308 387.748 544.545 387.748Z" fill="#0050C9"/>
<path d="M541.247 394.227C542.101 394.227 542.101 392.902 541.247 392.902C540.422 392.902 540.422 394.227 541.247 394.227Z" fill="#0050C9"/>
<path d="M516.507 442.021C516.507 442.05 516.507 442.08 516.477 442.109C516.448 442.168 516.448 442.227 516.418 442.315C516.359 442.551 516.359 442.639 516.418 442.875C516.418 442.934 516.418 442.963 516.448 443.022C516.507 443.405 517.037 443.67 517.39 443.552C517.626 443.464 517.803 443.375 517.979 443.228C518.038 443.169 518.068 443.14 518.126 443.081C518.156 443.052 518.156 443.051 518.185 443.022C518.657 442.58 518.509 441.756 517.979 441.461C517.449 441.137 516.654 441.402 516.507 442.021Z" fill="#0050C9"/>
<path d="M523.222 445.643C523.163 445.731 523.104 445.849 523.045 445.937C523.104 445.879 523.163 445.79 523.222 445.731C523.163 445.79 523.104 445.879 523.045 445.937C522.574 446.438 522.81 447.204 523.428 447.38C523.516 447.41 523.575 447.439 523.664 447.439C523.575 447.41 523.487 447.38 523.428 447.351C523.546 447.41 523.664 447.469 523.752 447.557C524.223 447.852 524.871 447.793 525.313 447.439C525.725 447.115 525.99 446.497 525.814 445.967C525.666 445.496 525.313 445.113 524.842 444.995C524.223 444.848 523.516 445.113 523.222 445.643Z" fill="#0050C9"/>
<path d="M505.049 453.8C505.049 453.653 505.079 453.535 505.079 453.388C505.049 452.799 504.46 452.475 503.96 452.74C503.842 452.799 503.724 452.887 503.606 452.975C503.312 453.182 503.135 453.447 503.135 453.8C503.135 454.153 503.312 454.448 503.606 454.625C503.901 454.801 504.284 454.801 504.578 454.625C504.873 454.448 505.02 454.153 505.049 453.8Z" fill="#0050C9"/>
<path d="M510.999 447.174C511.824 447.174 511.824 445.908 510.999 445.908C510.174 445.879 510.174 447.174 510.999 447.174Z" fill="#0050C9"/>
<path d="M577.061 442.61C578.121 442.61 578.121 440.961 577.061 440.961C576.03 440.961 576.03 442.61 577.061 442.61Z" fill="#0050C9"/>
<path d="M577.09 448.794C577.149 448.882 577.208 448.971 577.267 449.088C578.593 451.15 580.743 447.469 578.269 447.321C578.151 447.321 578.033 447.321 577.945 447.292C577.208 447.233 576.678 448.175 577.09 448.794Z" fill="#0050C9"/>
<path d="M515.741 384.009C515.711 384.068 515.682 384.126 515.652 384.185C515.593 384.303 515.535 384.421 515.505 384.539C515.417 384.863 515.505 385.275 515.77 385.481C515.711 385.363 515.623 385.245 515.564 385.128C515.564 385.157 515.564 385.157 515.564 385.187C515.652 385.569 516.094 385.805 516.448 385.687C516.477 385.687 516.477 385.687 516.506 385.658C516.359 385.658 516.241 385.658 516.094 385.658C516.418 385.776 516.83 385.658 517.066 385.422C517.154 385.334 517.213 385.216 517.302 385.128C517.331 385.069 517.39 385.039 517.419 384.98C517.567 384.804 517.567 384.45 517.508 384.244C517.449 384.009 517.272 383.773 517.066 383.655C516.83 383.537 516.565 383.479 516.33 383.567C516.094 383.626 515.829 383.773 515.741 384.009Z" fill="#0050C9"/>
<path d="M508.878 396.818C508.849 396.495 508.878 396.082 508.584 395.906C508.378 395.788 508.142 395.847 507.906 395.964C507.818 396.023 507.73 396.053 507.612 396.112C507.052 396.406 507.111 397.26 507.612 397.555C508.142 397.849 508.908 397.466 508.878 396.818Z" fill="#0050C9"/>
<path d="M518.656 395.905C518.656 395.699 518.656 395.493 518.598 395.287C518.509 395.052 518.332 394.963 518.097 394.993C517.891 395.022 517.714 395.14 517.537 395.228C517.007 395.493 517.066 396.259 517.537 396.524C517.979 396.848 518.686 396.494 518.656 395.905Z" fill="#0050C9"/>
<path d="M515.947 390.988C516.124 390.958 516.271 390.958 516.448 390.958C516.889 390.958 517.125 390.487 516.919 390.134C516.831 389.987 516.772 389.839 516.713 389.692C516.595 389.427 516.242 389.25 515.947 389.25C515.623 389.25 515.329 389.427 515.181 389.692C515.034 389.957 515.034 390.31 515.181 390.575C515.329 390.811 515.652 391.017 515.947 390.988Z" fill="#0050C9"/>
<path d="M513.679 401.795C513.738 401.618 513.797 401.412 513.856 401.236C513.885 401.147 513.915 401.059 513.944 400.971C514.003 400.735 513.973 400.529 513.915 400.323C513.826 399.94 513.384 399.704 513.002 399.822C512.795 399.881 512.589 399.969 512.442 400.117C512.383 400.175 512.324 400.234 512.265 400.323C512.118 400.47 512 400.617 511.853 400.764C511.382 401.265 511.441 402.119 512.059 402.472C512.707 402.796 513.473 402.472 513.679 401.795Z" fill="#0050C9"/>
<path d="M624.126 358.536C624.274 358.095 623.655 357.888 623.39 358.242C618.295 365.309 613.199 371.758 606.543 377.442C600.446 382.654 593.496 386.659 587.134 391.547C586.604 391.96 587.252 392.637 587.782 392.401C602.037 386.099 618.795 373.761 624.126 358.536Z" fill="#C9DAFB"/>
<path d="M584.925 370.256C579.535 375.145 574.646 380.593 569.315 385.569C563.896 390.634 557.888 395.346 553.381 401.294C552.998 401.795 553.735 402.502 554.235 402.148C560.332 397.908 565.663 392.431 571.053 387.336C576.325 382.33 581.95 377.147 585.809 370.934C586.103 370.374 585.367 369.844 584.925 370.256Z" fill="#C9DAFB"/>
<path d="M555.354 375.793C555.531 375.469 555.089 375.086 554.824 375.38C550.2 381.211 546.43 387.719 542.189 393.844C537.123 401.177 530.349 407.037 525.313 414.222C525.048 414.605 525.548 415.076 525.961 414.87C532.588 411.189 537.33 404.092 541.6 397.996C546.519 390.929 551.143 383.361 555.354 375.793Z" fill="#C9DAFB"/>
<path d="M517.302 403.65C521.926 395.14 525.549 385.51 527.375 375.999C527.492 375.41 526.697 375.204 526.491 375.763C523.34 384.215 520.571 392.666 516.477 400.735C512.295 408.951 506.228 415.253 500.779 422.556C500.337 423.174 501.221 424.058 501.839 423.616C508.672 418.904 513.414 410.836 517.302 403.65Z" fill="#C9DAFB"/>
<path d="M490.706 417.756C494.623 410.276 497.48 402.355 498.864 394.021C498.953 393.461 498.158 393.226 497.981 393.785C495.86 401.795 492.562 409.275 488.733 416.607C485.198 423.351 479.544 429.8 477.187 437.015C476.981 437.663 477.835 438.075 478.277 437.663C483.696 432.509 487.29 424.293 490.706 417.756Z" fill="#C9DAFB"/>
<path d="M641.769 379.385C629.104 384.863 618.796 392.961 604.217 392.578C603.657 392.548 603.686 393.373 604.217 393.432C617.647 395.081 631.902 388.22 642.21 380.004C642.593 379.709 642.122 379.238 641.769 379.385Z" fill="#C9DAFB"/>
<path d="M594.203 412.102C588.489 412.19 582.775 412.367 577.061 412.396C570.493 412.426 563.925 411.071 557.387 411.277C556.974 411.277 556.945 411.807 557.298 411.955C568.402 416.254 582.687 414.045 594.203 412.838C594.644 412.779 594.674 412.102 594.203 412.102Z" fill="#C9DAFB"/>
<path d="M585.396 427.002C572.82 430.919 562.158 424.293 549.847 423.999C549.228 423.969 549.111 424.912 549.7 425.088C561.216 428.239 574.145 432.48 585.691 427.709C586.074 427.532 585.809 426.885 585.396 427.002Z" fill="#C9DAFB"/>
<path d="M564.19 442.993C549.199 437.574 531.822 429.771 515.564 431.361C515.063 431.42 514.828 432.244 515.446 432.333C523.487 433.452 531.292 434.453 539.126 436.632C547.461 438.958 555.531 442.05 563.955 444.023C564.603 444.2 564.838 443.228 564.19 442.993Z" fill="#C9DAFB"/>
<path d="M549.67 455.449C540.746 453.594 532.794 448.971 523.988 446.791C514.681 444.465 504.578 443.935 495.095 442.639C494.388 442.551 494.152 443.434 494.8 443.699C503.695 447.322 514.327 446.085 523.664 447.94C532.617 449.707 540.422 455.007 549.582 456.038C549.935 456.038 549.994 455.508 549.67 455.449Z" fill="#C9DAFB"/>
<path d="M155.977 233.442C147.465 224.843 142.075 195.189 150.204 184.706C158.892 174.016 163.87 187.65 164.253 195.748C164.488 204.2 161.838 213.152 159.158 221.221C157.891 225.079 156.124 229.113 155.741 232.912L155.977 233.442Z" fill="#9CC0F7"/>
<path d="M161.602 252.082C161.16 239.979 177.33 214.536 190.436 212.357C204.073 210.384 198.477 223.783 193.264 229.996C187.697 236.357 179.686 241.157 172.264 245.25C168.73 247.223 164.665 248.99 161.838 251.523L161.602 252.082Z" fill="#9CC0F7"/>
<path d="M159.246 291.248C158.804 279.145 174.974 253.702 188.08 251.523C201.717 249.55 196.121 262.948 190.908 269.162C185.341 275.523 177.33 280.323 169.908 284.416C166.373 286.389 162.309 288.156 159.482 290.688L159.246 291.248Z" fill="#9CC0F7"/>
<path d="M150.587 260.092C139.277 255.793 122.106 231.027 125.169 218.099C128.645 204.789 138.835 215.125 142.517 222.34C146.228 229.937 147.524 239.184 148.407 247.636C148.849 251.67 148.908 256.087 150.145 259.68L150.587 260.092Z" fill="#9CC0F7"/>
<path d="M121.252 255.94C124.727 242.629 134.005 245.456 137.775 252.612C146.581 269.309 141.339 290.423 142.576 294.016C142.576 294.045 118.159 268.867 121.252 255.94Z" fill="#9CC0F7"/>
<path d="M153.296 207.91C158.097 241.982 154.74 276.553 144.667 309.417C141.928 318.399 138.246 326.997 135.33 335.891C135.183 336.391 135.89 336.686 136.155 336.244C140.219 329 142.9 320.931 145.403 313.039C148.054 304.735 150.204 296.254 151.912 287.714C155.299 270.811 156.948 253.496 156.507 236.269C156.271 226.698 155.329 217.245 153.473 207.852C153.473 207.734 153.267 207.793 153.296 207.91Z" fill="#0050C9"/>
<path d="M137.628 236.033C146.876 247.724 151.47 263.007 152.207 277.761C152.236 278.379 153.208 278.379 153.179 277.761C152.972 270.134 151.47 262.536 148.937 255.321C146.463 248.313 142.929 241.304 137.804 235.856C137.686 235.739 137.539 235.915 137.628 236.033Z" fill="#0050C9"/>
<path d="M176.535 231.469C170.762 236.652 166.049 242.718 162.103 249.432C160.159 252.73 158.392 256.176 157.037 259.768C156.359 261.535 155.77 263.331 155.27 265.187C154.857 266.806 154.062 268.956 154.239 270.634C154.268 270.841 154.563 270.988 154.681 270.752C155.446 269.339 155.594 267.454 156.124 265.893C156.713 264.185 157.331 262.448 158.009 260.769C159.511 257.088 161.219 253.496 163.163 250.05C166.845 243.454 171.439 237.093 176.623 231.616C176.77 231.528 176.623 231.41 176.535 231.469Z" fill="#0050C9"/>
<path d="M136.243 263.066C138.983 272.401 140.897 281.913 141.839 291.601C142.281 296.313 142.487 301.083 142.429 305.825C142.399 308.121 142.311 310.448 142.163 312.745C142.016 315.189 141.604 317.633 141.692 320.077C141.692 320.342 142.075 320.401 142.163 320.136C142.87 317.928 142.988 315.572 143.165 313.275C143.371 310.801 143.489 308.328 143.518 305.825C143.577 300.995 143.371 296.136 142.87 291.336C141.898 281.677 139.778 272.077 136.332 263.037C136.361 262.919 136.214 262.948 136.243 263.066Z" fill="#0050C9"/>
<path d="M182.248 262.094C174.826 268.455 168.494 276.082 162.604 283.856C159.717 287.714 156.949 291.66 154.239 295.636C151.441 299.758 148.378 303.793 145.816 308.092C145.55 308.534 146.228 309.093 146.552 308.681C149.527 304.823 152.059 300.612 154.828 296.607C157.508 292.72 160.247 288.863 163.075 285.064C169.024 277.054 175.622 269.633 182.572 262.477C182.779 262.212 182.455 261.918 182.248 262.094Z" fill="#0050C9"/>
<path d="M158.716 199.871C158.922 200.018 159.128 200.136 159.187 200.401C159.305 200.843 159.158 201.137 158.775 201.344H158.745C159.01 201.52 158.775 201.962 158.48 201.844C158.274 201.756 158.274 201.55 158.392 201.432C158.274 201.432 158.186 201.402 158.068 201.373C156.683 201.049 157.538 199.106 158.716 199.871Z" fill="#0F54D9"/>
<path d="M153.503 204.141C154.504 204.583 153.827 206.144 152.825 205.702C151.824 205.26 152.501 203.699 153.503 204.141Z" fill="#0F54D9"/>
<path d="M152.118 194.099C152.384 193.923 152.619 193.864 152.914 193.805C153.738 193.658 154.21 194.453 154.092 195.13C154.121 195.748 153.621 196.367 152.884 196.249C152.325 196.19 151.942 195.955 151.706 195.454C151.5 195.012 151.706 194.364 152.118 194.099Z" fill="#0F54D9"/>
<path d="M159.541 190.507C160.1 190.742 159.717 191.596 159.158 191.361C158.598 191.125 158.981 190.271 159.541 190.507Z" fill="#0F54D9"/>
<path d="M157.273 202.58C157.95 202.875 157.479 203.964 156.801 203.641C156.124 203.346 156.595 202.286 157.273 202.58Z" fill="#0F54D9"/>
<path d="M177.212 234.149C178.007 234.502 177.477 235.739 176.652 235.385C175.857 235.061 176.417 233.795 177.212 234.149Z" fill="#0F54D9"/>
<path d="M183.132 227.699C183.751 227.964 183.338 228.936 182.69 228.671C182.101 228.406 182.514 227.434 183.132 227.699Z" fill="#0F54D9"/>
<path d="M188.64 225.196C189.376 225.52 188.875 226.639 188.139 226.315C187.432 225.991 187.933 224.872 188.64 225.196Z" fill="#0F54D9"/>
<path d="M180.629 225.461C181.512 225.844 180.923 227.228 180.01 226.845C179.126 226.433 179.716 225.079 180.629 225.461Z" fill="#0F54D9"/>
<path d="M183.839 218.129C184.664 218.512 184.104 219.807 183.279 219.425C182.455 219.071 183.014 217.775 183.839 218.129Z" fill="#0F54D9"/>
<path d="M132.945 228.73C133.033 228.818 133.092 228.907 133.18 228.995C133.445 229.319 133.21 229.849 132.797 229.879C132.68 229.879 132.562 229.879 132.444 229.908C131.884 229.937 131.443 229.407 131.678 228.877C131.914 228.347 132.591 228.318 132.945 228.73Z" fill="#0F54D9"/>
<path d="M138.747 224.666C139.542 225.02 139.012 226.256 138.187 225.903C137.392 225.55 137.922 224.313 138.747 224.666Z" fill="#0F54D9"/>
<path d="M137.451 231.557C138.246 231.91 137.687 233.118 136.921 232.794C136.125 232.44 136.656 231.233 137.451 231.557Z" fill="#0F54D9"/>
<path d="M132.591 219.601C133.534 220.014 132.886 221.486 131.943 221.074C131.001 220.661 131.649 219.189 132.591 219.601Z" fill="#0F54D9"/>
<path d="M129.263 268.072C129.97 268.367 129.499 269.456 128.792 269.162C128.056 268.838 128.556 267.748 129.263 268.072Z" fill="#0F54D9"/>
<path d="M131.59 259.798C132.356 260.151 131.825 261.358 131.06 261.005C130.264 260.652 130.795 259.444 131.59 259.798Z" fill="#0F54D9"/>
<path d="M135.301 259.356C135.949 259.65 135.507 260.622 134.859 260.328C134.211 260.063 134.653 259.091 135.301 259.356Z" fill="#0F54D9"/>
<path d="M134.889 272.254C135.654 272.578 135.124 273.785 134.358 273.432C133.593 273.108 134.123 271.901 134.889 272.254Z" fill="#0F54D9"/>
<path d="M129.558 260.386C130.147 260.652 129.734 261.594 129.145 261.329C128.556 261.034 128.969 260.121 129.558 260.386Z" fill="#0F54D9"/>
<path d="M182.837 267.984C183.014 267.896 183.044 267.896 182.896 267.955C182.955 267.896 183.014 267.807 183.102 267.748C183.397 267.454 183.809 267.66 183.78 268.043C183.809 268.22 183.78 268.249 183.75 268.131C183.868 268.279 183.868 268.308 183.75 268.22C184.752 268.632 183.809 270.163 182.985 269.456C182.72 269.25 182.484 268.897 182.572 268.514C182.602 268.308 182.661 268.131 182.837 267.984Z" fill="#0F54D9"/>
<path d="M189.7 260.71C190.584 261.093 189.995 262.477 189.082 262.094C188.198 261.682 188.816 260.298 189.7 260.71Z" fill="#0F54D9"/>
<path d="M185.194 268.926C185.959 269.28 185.429 270.487 184.663 270.134C183.868 269.78 184.398 268.573 185.194 268.926Z" fill="#0F54D9"/>
<path d="M186.961 260.946C187.697 261.27 187.197 262.418 186.46 262.095C185.694 261.771 186.195 260.622 186.961 260.946Z" fill="#0F54D9"/>
<path d="M155.358 184.617C155.594 184.529 155.77 184.853 155.564 185C151.441 187.68 150.322 191.95 149.821 196.573C149.438 200.077 150.41 203.758 149.497 207.174C149.379 207.557 148.937 207.616 148.761 207.263C146.729 203.493 147.524 197.869 148.289 193.834C149.055 189.741 151.411 186.119 155.358 184.617Z" fill="#C9DAFB"/>
<path d="M129.94 214.801C130.264 214.477 130.765 214.86 130.5 215.272C126.436 221.633 130.883 227.729 131.325 234.237C131.354 234.59 130.912 234.767 130.677 234.502C126.966 229.761 125.316 219.395 129.94 214.801Z" fill="#C9DAFB"/>
<path d="M127.378 250.521C127.732 250.198 128.232 250.757 127.938 251.11C126.524 252.73 125.552 254.556 125.022 256.647C124.433 258.973 125.287 260.917 125.287 263.184C125.287 263.567 124.845 263.95 124.492 263.626C120.84 259.945 124.374 253.29 127.378 250.521Z" fill="#C9DAFB"/>
<path d="M189.965 214.566C192.027 214.006 193.882 214.536 195.649 215.655C196.15 215.979 195.62 216.745 195.119 216.539C193.205 215.744 191.232 216.156 189.376 216.951C187.962 217.54 186.666 218.983 185.076 218.894C184.575 218.865 184.399 218.306 184.546 217.893C185.135 216.068 188.286 215.037 189.965 214.566Z" fill="#C9DAFB"/>
<path d="M192.38 254.261C192.969 254.32 192.94 255.263 192.351 255.292C184.428 255.498 180.864 262.418 174.561 265.717C174.178 265.923 173.943 265.393 174.12 265.128C178.007 259.503 185.253 253.525 192.38 254.261Z" fill="#C9DAFB"/>
<path d="M148.761 421.142C155.977 393.079 163.546 363.425 158.627 334.242C155.741 317.898 149.556 301.643 134.476 291.601C117.07 281.029 113.977 272.902 105.171 253.555C99.2214 239.832 85.6437 216.097 66.5879 220.014C47.532 223.93 46.6484 246.016 49.682 261.564C51.2136 269.339 55.8965 277.849 55.6609 286.036C55.0719 295.812 47.2964 297.344 42.9963 305.442C33.9249 319.901 44.9107 340.544 53.5698 353.236C76.3661 387.307 129.469 396.936 140.691 438.281L148.761 421.142Z" fill="#71A5F4"/>
<path d="M141.81 450.679C143.842 434.688 140.632 418.286 136.567 402.855C132.356 386.806 127.054 370.934 121.193 355.415C115.126 339.395 108.116 323.788 100.606 308.416C94.1262 295.194 87.0576 282.237 80.5191 269.044C73.8333 255.528 67.0886 240.126 68.4435 224.666C68.5024 224.107 67.6482 224.107 67.5893 224.666C66.8825 230.85 67.8839 237.093 69.4743 243.071C71.2709 249.844 73.8333 256.382 76.5724 262.801C82.1684 275.935 89.3254 288.333 95.7166 301.083C111.061 331.621 124.138 363.13 133.711 395.964C138.894 413.722 142.782 432.097 141.427 450.679C141.427 450.914 141.781 450.914 141.81 450.679Z" fill="#0F54D9"/>
<path d="M88.4711 284.917C83.9943 275.876 81.1963 266.129 80.136 256.087C79.1051 246.281 79.1346 236.445 79.7531 226.639C79.7825 226.08 78.9284 226.08 78.899 226.639C78.0743 242.158 78.5161 258.443 83.0518 273.432C84.2888 277.496 85.9087 281.501 88.1765 285.123C88.2943 285.299 88.5889 285.123 88.4711 284.917Z" fill="#0F54D9"/>
<path d="M90.8275 291.012C89.7377 289.481 88.2062 288.244 86.8219 286.948C85.2904 285.535 83.7883 284.092 82.2862 282.649C79.1642 279.616 76.1011 276.495 73.1853 273.285C67.3243 266.836 61.9344 259.827 58.135 251.935C55.985 247.488 54.424 242.777 53.5699 237.918C53.4815 237.476 52.8335 237.653 52.8925 238.094C55.8377 255.557 67.6188 269.78 79.9594 281.766C81.6971 283.444 83.4348 285.093 85.202 286.713C86.8808 288.274 88.5596 290.129 90.5624 291.277C90.7097 291.366 90.9453 291.189 90.8275 291.012Z" fill="#0F54D9"/>
<path d="M106.408 320.607C105.141 316.75 103.669 312.98 102.667 309.034C101.637 304.912 100.93 300.671 100.488 296.431C99.6043 287.979 99.7515 279.439 100.635 271.017C101.136 266.217 102.078 261.505 102.756 256.735C102.844 256.087 101.931 255.793 101.754 256.47C100.723 260.475 100.252 264.686 99.781 268.779C99.2803 273.108 98.9858 277.466 98.8974 281.854C98.7207 290.482 99.457 299.199 101.46 307.591C102.52 312.067 103.816 316.75 106.084 320.755C106.172 320.931 106.467 320.813 106.408 320.607Z" fill="#0F54D9"/>
<path d="M116.54 344.519C112.122 325.29 115.803 306.09 122.224 287.773C122.401 287.243 121.576 287.007 121.37 287.537C114.655 305.589 110.708 325.761 115.98 344.666C116.068 345.049 116.598 344.902 116.54 344.519Z" fill="#0F54D9"/>
<path d="M128.291 373.879C127.761 371.758 126.907 369.756 126.465 367.606C125.994 365.309 125.758 362.953 125.758 360.598C125.758 355.798 126.612 350.998 127.879 346.374C130.441 336.863 134.682 327.881 138.894 318.988C139.954 316.75 141.044 314.482 142.075 312.215C142.988 310.212 144.254 308.063 144.696 305.883C144.785 305.383 144.166 305.118 143.872 305.53C142.752 307.268 142.104 309.417 141.25 311.302C140.308 313.393 139.336 315.454 138.364 317.515C136.214 322.05 134.064 326.615 132.091 331.238C128.291 340.19 124.845 349.761 124.698 359.596C124.668 362.099 124.845 364.632 125.346 367.106C125.817 369.432 126.553 372.082 127.967 373.996C128.114 374.144 128.35 374.085 128.291 373.879Z" fill="#0F54D9"/>
<path d="M136.214 402.237C135.448 398.026 134.977 393.815 135.242 389.515C135.507 385.157 136.42 380.858 137.628 376.676C140.072 368.313 143.901 360.421 147.848 352.647C150.027 348.377 152.266 344.107 154.357 339.807C154.651 339.189 153.738 338.629 153.414 339.277C145.786 354.796 135.772 370.404 134.299 388.072C133.887 392.843 134.123 397.82 135.595 402.413C135.743 402.767 136.273 402.62 136.214 402.237Z" fill="#0F54D9"/>
<path d="M139.837 418.698C140.337 415.429 140.543 412.161 141.221 408.892C141.898 405.535 142.811 402.237 143.872 398.968C144.932 395.67 146.198 392.46 147.583 389.28C148.26 387.748 148.967 386.247 149.733 384.774C150.439 383.39 151.323 382.036 151.794 380.563C151.912 380.18 151.382 379.856 151.117 380.18C150.086 381.358 149.438 382.831 148.761 384.215C147.965 385.775 147.229 387.366 146.522 388.956C145.167 392.048 143.96 395.228 142.9 398.438C141.81 401.795 140.956 405.182 140.337 408.656C139.748 411.896 139.159 415.341 139.395 418.639C139.424 418.875 139.807 418.963 139.837 418.698Z" fill="#0F54D9"/>
<path d="M110.472 332.534C107.939 329.324 104.464 326.615 101.371 323.964C98.161 321.255 94.8329 318.693 91.5047 316.131C84.495 310.772 77.338 305.618 70.7406 299.758C68.944 298.168 67.2063 296.519 65.498 294.811C63.8781 293.162 62.4055 291.277 60.6678 289.746C60.5794 289.658 60.4322 289.775 60.4911 289.864C62.4938 293.25 65.8514 296.107 68.7084 298.757C71.8598 301.672 75.129 304.411 78.4572 307.091C85.3196 312.598 92.4766 317.722 99.3097 323.287C101.136 324.76 102.932 326.291 104.699 327.852C106.526 329.471 108.204 331.297 110.06 332.858C110.354 333.123 110.678 332.799 110.472 332.534Z" fill="#0F54D9"/>
<path d="M120.575 355.945C113.977 347.523 104.405 341.545 95.1569 336.509C85.467 331.238 75.3942 326.615 66.1166 320.607C63.407 318.841 60.7857 317.044 58.3116 314.983C55.8965 312.98 53.8054 310.713 51.567 308.563C51.3314 308.328 50.8601 308.652 51.0663 308.946C54.2472 313.069 58.724 316.367 62.9063 319.4C67.3831 322.669 72.2427 325.437 77.1319 328.058C86.8218 333.241 96.8946 337.864 106.084 343.989C111.356 347.493 116.039 351.587 120.309 356.239C120.486 356.445 120.751 356.151 120.575 355.945Z" fill="#0F54D9"/>
<path d="M131.413 387.572C129.293 382.33 125.523 377.648 121.547 373.672C117.453 369.579 112.77 366.045 107.88 362.924C97.6015 356.328 86.38 351.38 75.512 345.874C69.5626 342.87 63.9371 339.425 58.2233 336.038C57.8993 335.861 57.5164 336.303 57.811 336.568C62.1994 340.131 67.3242 342.811 72.3311 345.432C77.6621 348.229 83.1108 350.85 88.5301 353.501C99.1036 358.742 109.824 364.279 118.66 372.229C121.016 374.35 123.255 376.647 125.258 379.15C127.437 381.859 129.204 384.804 131.001 387.748C131.148 387.955 131.531 387.807 131.413 387.572Z" fill="#0F54D9"/>
<path d="M137.392 407.449C131.178 398.821 122.342 392.166 113.624 386.217C104.405 379.945 94.6563 374.497 84.937 369.02C82.2862 367.518 79.6355 365.987 76.9847 364.485C74.4813 363.071 71.9778 361.422 69.3271 360.303C69.1209 360.215 68.9736 360.509 69.1209 360.656C71.0353 362.306 73.3326 363.513 75.4532 364.838C77.6622 366.193 79.9006 367.429 82.1684 368.725C86.9103 371.434 91.6816 374.114 96.394 376.853C105.937 382.418 115.391 388.279 123.932 395.287C128.586 399.115 132.886 403.326 137.039 407.685C137.215 407.891 137.539 407.655 137.392 407.449Z" fill="#0F54D9"/>
<path d="M72.7141 288.715C73.2737 288.715 73.2737 287.832 72.7141 287.832C72.1545 287.832 72.1545 288.715 72.7141 288.715Z" fill="#0F54D9"/>
<path d="M71.1233 295.488C71.2998 295.488 71.2998 295.194 71.1233 295.194C70.9469 295.194 70.9469 295.488 71.1233 295.488Z" fill="#0F54D9"/>
<path d="M62.8473 286.212C63.8782 286.212 63.8782 284.622 62.8473 284.622C61.8165 284.593 61.8165 286.212 62.8473 286.212Z" fill="#0F54D9"/>
<path d="M74.0983 291.395C75.3353 291.395 75.3648 289.452 74.0983 289.452C72.8318 289.452 72.8318 291.395 74.0983 291.395Z" fill="#0F54D9"/>
<path d="M69.9748 280.647C70.0337 280.823 70.0926 280.971 70.1515 281.147C70.2694 281.53 70.77 281.707 71.0646 281.383C71.1824 281.265 71.3002 281.147 71.418 281C71.8598 280.529 71.6831 279.734 71.0351 279.557C70.4166 279.41 69.7687 279.999 69.9748 280.647Z" fill="#0F54D9"/>
<path d="M78.6341 297.609C78.5163 297.668 78.369 297.726 78.2512 297.815C78.1039 297.874 78.0156 298.05 78.0156 298.198C77.9861 298.374 78.045 298.492 78.1628 298.639C78.2806 298.787 78.369 298.904 78.4868 299.052C78.5752 299.169 78.7519 299.258 78.8697 299.287C79.0169 299.317 79.1937 299.317 79.3409 299.287C79.6944 299.199 79.93 298.904 79.9889 298.551C80.0183 298.227 79.9005 297.933 79.6649 297.726C79.3409 297.461 78.958 297.461 78.6341 297.609Z" fill="#0F54D9"/>
<path d="M130.677 304.529C130.559 305.206 130.5 305.972 130.647 306.649C130.736 306.973 131.236 307.15 131.443 306.855C131.855 306.325 132.179 305.618 132.356 304.971C132.474 304.529 132.208 304.028 131.737 303.91C131.325 303.793 130.765 304.058 130.677 304.529Z" fill="#0F54D9"/>
<path d="M129.204 317.457C129.381 317.486 129.558 317.545 129.734 317.545C130.088 317.545 130.471 317.309 130.559 316.956C130.412 317.103 130.264 317.25 130.088 317.427C130.176 317.398 130.264 317.368 130.323 317.339C130.176 317.368 130.029 317.368 129.852 317.398C130.147 317.456 130.5 317.309 130.588 316.985C130.647 316.691 130.5 316.337 130.176 316.249C130.294 316.337 130.412 316.426 130.529 316.514C130.471 316.455 130.441 316.396 130.382 316.308C130.441 316.455 130.5 316.632 130.588 316.779C130.618 316.455 130.412 316.161 130.147 316.014C129.999 315.925 129.823 315.896 129.675 315.837C129.263 315.719 128.733 315.984 128.645 316.426C128.527 316.838 128.733 317.398 129.204 317.457Z" fill="#0F54D9"/>
<path d="M125.611 309.977C126.877 309.977 126.877 308.004 125.611 308.004C124.315 307.974 124.315 309.977 125.611 309.977Z" fill="#0F54D9"/>
<path d="M123.255 317.191C124.138 317.191 124.138 315.807 123.255 315.807C122.371 315.807 122.371 317.191 123.255 317.191Z" fill="#0F54D9"/>
<path d="M105.495 370.875C105.495 370.904 105.495 370.934 105.495 370.963C105.495 371.022 105.495 371.11 105.524 371.169C105.524 371.317 105.554 371.464 105.613 371.611C105.642 371.699 105.672 371.788 105.731 371.847C105.848 372.053 106.084 372.2 106.32 372.229C106.585 372.259 106.791 372.171 106.997 372.023C107.203 371.847 107.35 371.641 107.468 371.405C107.822 370.816 107.498 370.05 106.85 369.874C106.202 369.697 105.436 370.198 105.495 370.875Z" fill="#0F54D9"/>
<path d="M97.9255 370.433C98.0433 370.463 98.1906 370.492 98.3084 370.521C98.22 370.492 98.1317 370.463 98.0433 370.404C98.1317 370.433 98.22 370.492 98.2789 370.521C98.5735 370.669 98.8975 370.698 99.192 370.521C99.4571 370.345 99.6338 370.05 99.6338 369.726C99.6338 369.638 99.6338 369.55 99.6338 369.461C99.6338 369.55 99.6043 369.638 99.6043 369.756C99.6338 369.638 99.6632 369.52 99.6927 369.402C99.84 368.813 99.6338 368.225 99.1625 367.842C98.9564 367.665 98.7207 367.577 98.4557 367.547C98.1317 367.518 97.7783 367.547 97.5132 367.724C97.0714 367.989 96.7769 368.46 96.7769 368.99C96.7769 369.314 96.8947 369.638 97.1008 369.874C97.3365 370.139 97.6015 370.345 97.9255 370.433Z" fill="#0F54D9"/>
<path d="M109.53 389.015C109.471 388.809 109.471 388.573 109.353 388.396C109.117 388.043 108.676 387.896 108.293 388.102C108.116 388.22 107.998 388.396 107.851 388.544C107.733 388.661 107.645 388.809 107.586 388.985C107.527 389.162 107.527 389.339 107.586 389.515C107.674 389.869 107.939 390.134 108.293 390.222C108.646 390.31 109.029 390.222 109.265 389.957C109.53 389.721 109.589 389.368 109.53 389.015Z" fill="#0F54D9"/>
<path d="M108.469 379.415C109.324 379.415 109.324 378.09 108.469 378.09C107.615 378.06 107.615 379.415 108.469 379.415Z" fill="#0F54D9"/>
<path d="M61.2569 328.617C62.3761 328.617 62.3761 326.909 61.2569 326.909C60.1671 326.909 60.1377 328.617 61.2569 328.617Z" fill="#0F54D9"/>
<path d="M56.4562 331.209C56.4268 331.179 56.3973 331.179 56.3679 331.15C54.7185 329.147 53.0986 334.006 55.8377 333.211C55.8672 333.211 55.8966 333.182 55.9261 333.182C56.7213 332.946 57.1042 331.827 56.4562 331.209C56.3973 331.179 56.3679 331.15 56.3679 331.15C55.6316 330.502 54.424 330.826 54.3062 331.856C54.1589 332.917 55.2487 333.506 56.1323 333.093C56.0733 333.123 56.0144 333.152 55.9555 333.182C56.9275 333.064 57.3987 331.798 56.4562 331.209Z" fill="#0F54D9"/>
<path d="M147.671 327.233C147.671 327.351 147.642 327.469 147.642 327.557C147.612 327.881 147.848 328.264 148.142 328.411C148.172 328.411 148.172 328.44 148.201 328.44C148.113 328.352 147.995 328.234 147.907 328.146C147.907 328.175 147.936 328.175 147.936 328.205C148.142 328.529 148.614 328.706 148.967 328.47C148.996 328.47 148.996 328.44 149.026 328.44C148.879 328.47 148.761 328.529 148.614 328.558H148.643C148.731 328.558 148.82 328.529 148.908 328.529C149.026 328.499 149.144 328.441 149.232 328.352C149.409 328.205 149.497 328.058 149.586 327.852C149.615 327.734 149.674 327.645 149.703 327.528C149.91 326.939 149.438 326.32 148.849 326.261C148.555 326.232 148.319 326.291 148.083 326.467C147.966 326.526 147.877 326.644 147.818 326.762C147.701 326.88 147.671 327.056 147.671 327.233Z" fill="#0F54D9"/>
<path d="M147.229 342.575C147.111 342.281 147.023 341.81 146.64 341.751C146.375 341.692 146.169 341.81 145.992 341.987C145.904 342.045 145.845 342.134 145.757 342.193C145.285 342.664 145.521 343.488 146.139 343.665C146.434 343.753 146.758 343.665 146.994 343.429C147.2 343.223 147.318 342.84 147.229 342.575Z" fill="#0F54D9"/>
<path d="M140.249 334.831C140.219 334.742 140.19 334.654 140.16 334.566C140.102 334.418 140.043 334.271 139.954 334.153C139.836 334.006 139.601 334.006 139.424 334.095C139.247 334.183 139.1 334.36 138.953 334.507C138.511 334.919 138.747 335.685 139.306 335.832C139.571 335.92 139.866 335.832 140.072 335.626C140.219 335.42 140.337 335.096 140.249 334.831Z" fill="#0F54D9"/>
<path d="M144.667 331.179C144.637 331.179 144.637 331.179 144.608 331.209C144.578 331.209 144.549 331.238 144.519 331.238C144.519 331.238 144.49 331.238 144.49 331.267C144.431 331.297 144.461 331.267 144.578 331.238C144.519 331.238 144.461 331.267 144.402 331.297C143.989 331.415 143.813 331.974 144.137 332.269C144.254 332.386 144.372 332.504 144.49 332.652C144.696 332.887 145.109 332.975 145.403 332.887C145.756 332.799 146.022 332.475 146.051 332.121C146.11 331.798 145.963 331.474 145.698 331.267C145.55 331.179 145.432 331.12 145.256 331.091C145.02 331.061 144.873 331.091 144.667 331.179Z" fill="#0F54D9"/>
<path d="M140.632 343.076C140.632 342.87 140.632 342.664 140.632 342.428C140.632 342.075 140.602 341.81 140.426 341.486C140.22 341.133 139.719 340.985 139.365 341.221C139.071 341.398 138.924 341.633 138.776 341.928C138.688 342.104 138.6 342.31 138.511 342.487C138.335 342.841 138.276 343.282 138.511 343.636C138.659 343.871 138.894 344.077 139.189 344.166C139.896 344.401 140.632 343.842 140.632 343.076Z" fill="#0F54D9"/>
<path d="M84.9075 230.261C85.1136 229.79 85.7321 230.114 85.6732 230.556C84.4951 239.626 83.7883 248.225 84.8191 257.324C85.7616 265.717 88.2062 273.756 89.561 282.031C89.6788 282.737 88.6774 282.796 88.4418 282.237C82.0506 267.218 78.0745 245.751 84.9075 230.261Z" fill="#C9DAFB"/>
<path d="M106.526 267.336C107.174 274.934 106.997 282.649 107.498 290.276C108.028 298.05 109.235 305.972 108.44 313.746C108.381 314.394 107.321 314.423 107.174 313.805C105.554 306.178 105.407 298.168 104.935 290.394C104.464 282.767 103.905 274.786 105.407 267.248C105.554 266.6 106.496 266.718 106.526 267.336Z" fill="#C9DAFB"/>
<path d="M125.199 292.779C125.287 292.426 125.905 292.426 125.876 292.838C125.257 300.612 123.461 308.298 122.312 316.043C120.928 325.26 121.929 334.625 120.633 343.753C120.575 344.254 119.838 344.225 119.691 343.783C117.246 336.215 118.69 327.38 119.809 319.636C121.134 310.683 123.019 301.584 125.199 292.779Z" fill="#C9DAFB"/>
<path d="M134.388 341.398C136.95 331.562 141.074 321.609 146.493 312.98C146.817 312.45 147.583 312.863 147.347 313.422C143.695 322.168 139.748 330.62 137.127 339.748C134.447 349.054 134.565 358.212 133.504 367.694C133.416 368.49 132.12 368.519 131.943 367.753C130.058 359.243 132.238 349.672 134.388 341.398Z" fill="#C9DAFB"/>
<path d="M144.637 371.228C146.994 362.688 150.498 354.561 155.417 347.199C155.741 346.698 156.536 347.11 156.242 347.64C152.148 355.297 149.291 363.395 146.964 371.758C144.844 379.444 144.549 388.426 141.191 395.64C140.897 396.288 139.925 395.994 139.896 395.346C139.454 387.572 142.576 378.708 144.637 371.228Z" fill="#C9DAFB"/>
<path d="M56.4268 233.589C62.1995 246.87 64.2906 260.475 75.7477 270.605C76.1895 270.988 75.6004 271.577 75.1292 271.253C63.6721 262.89 57.6638 247.4 55.661 233.736C55.5726 233.236 56.25 233.206 56.4268 233.589Z" fill="#C9DAFB"/>
<path d="M69.4153 292.75C73.7449 296.902 77.9861 301.142 82.3451 305.265C87.352 310.006 93.3604 313.658 98.2201 318.517C98.5146 318.811 98.1612 319.253 97.8077 319.106C86.2328 314.453 76.8669 302.497 68.9147 293.309C68.5907 292.956 69.0619 292.396 69.4153 292.75Z" fill="#C9DAFB"/>
<path d="M65.4981 310.477C72.3312 322.492 85.2314 325.054 94.8919 333.653C95.3926 334.094 94.8035 334.89 94.2145 334.566C83.1403 328.735 70.1811 322.728 64.7618 310.772C64.5557 310.389 65.2625 310.065 65.4981 310.477Z" fill="#C9DAFB"/>
<path d="M70.2401 337.923C85.5849 344.519 104.523 350.998 115.833 363.866C116.186 364.279 115.744 365.074 115.244 364.691C108.293 359.802 101.607 354.944 94.0378 351.027C85.9972 346.845 77.5738 343.429 69.7099 338.895C69.062 338.541 69.5921 337.628 70.2401 337.923Z" fill="#C9DAFB"/>
<path d="M72.4491 357.859C80.6075 362.836 90.0029 364.985 98.3379 369.609C107.115 374.497 115.244 381.299 123.432 387.13C124.05 387.572 123.579 388.396 122.872 388.131C113.447 384.509 106.202 375.969 97.7194 370.698C89.5905 365.633 79.8122 364.102 72.0662 358.33C71.8306 358.153 72.1546 357.682 72.4491 357.859Z" fill="#C9DAFB"/>
<path d="M192.616 449.795C179.362 425.559 165.313 399.999 142.9 382.89C130.235 373.407 115.332 366.104 98.3379 368.931C79.3409 372.907 71.8894 369.285 53.1575 361.54C40.0805 355.856 15.1636 348.2 4.44283 363.336C-6.27794 378.472 7.47645 394.433 19.7582 403.267C25.8844 407.685 34.6612 410.541 39.8744 416.401C45.8533 423.587 41.4354 429.712 43.7032 438.163C46.7957 454.124 67.9133 461.339 82.1978 464.549C120.251 473.412 163.487 445.525 198.241 466.993L192.616 449.795Z" fill="#1E72EF" fill-opacity="0.89"/>
<path d="M207.048 474.914C198.418 462.958 186.136 453.888 173.825 446.026C160.63 437.604 146.758 430.036 132.739 423.056C117.217 415.341 101.195 408.598 84.9959 402.472C71.8011 397.466 58.3707 393.078 45.1759 388.072C32.0106 383.096 17.6671 376.764 8.74298 365.368C8.44845 365.015 7.80049 365.486 8.09502 365.869C15.4876 375.851 27.7988 381.594 38.873 386.482C51.0959 391.871 63.9078 395.817 76.4252 400.411C108.057 412.013 138.776 425.854 167.669 443.228C182.131 451.945 196.062 461.898 206.753 475.12C206.9 475.267 207.165 475.061 207.048 474.914Z" fill="#0050C9"/>
<path d="M61.9343 394.256C52.9218 390.87 44.6161 385.923 37.3119 379.591C30.2138 373.466 23.852 366.575 17.9026 359.361C17.5786 358.948 16.9895 359.537 17.3135 359.95C23.5575 367.341 30.2727 374.379 37.7537 380.563C44.8517 386.453 52.7745 392.225 61.8459 394.58C62.0521 394.639 62.1404 394.315 61.9343 394.256Z" fill="#0050C9"/>
<path d="M67.5303 396.966C65.7631 396.612 63.8487 396.76 62.0521 396.76C60.0493 396.76 58.0171 396.76 56.0143 396.73C51.8909 396.671 47.7676 396.465 43.6442 396.141C35.4269 395.464 27.1213 394.109 19.3752 391.106C14.9868 389.398 10.8045 387.13 7.03457 384.303C6.68113 384.038 6.35716 384.627 6.71059 384.892C20.1115 395.11 37.6064 397.348 53.9821 397.643C56.3088 397.672 58.6356 397.702 60.9624 397.672C63.1124 397.672 65.4392 397.849 67.5598 397.348C67.707 397.26 67.707 396.995 67.5303 396.966Z" fill="#0050C9"/>
<path d="M97.6605 407.42C93.2132 404.975 88.7658 402.767 84.5835 399.822C80.3423 396.818 76.3957 393.373 72.6847 389.721C69.0325 386.099 65.6455 382.242 62.494 378.178C59.2542 374.055 56.5151 369.609 53.4815 365.339C53.1281 364.838 52.3034 365.28 52.6274 365.839C54.5713 369.373 57.0453 372.701 59.431 375.91C61.905 379.209 64.4968 382.389 67.2359 385.451C72.6847 391.488 78.7519 396.966 85.526 401.471C89.237 403.945 93.2132 406.389 97.4838 407.714C97.7194 407.802 97.8372 407.508 97.6605 407.42Z" fill="#0050C9"/>
<path d="M120.28 417.461C104.67 406.978 94.7153 391.164 87.2638 374.261C87.087 373.82 86.2918 374.144 86.498 374.585C93.5961 391.547 103.963 408.185 119.986 417.933C120.31 418.139 120.575 417.667 120.28 417.461Z" fill="#0050C9"/>
<path d="M147.612 430.242C145.845 429.093 143.931 428.239 142.193 427.032C140.396 425.766 138.747 424.323 137.245 422.732C134.123 419.434 131.619 415.547 129.469 411.572C124.993 403.209 122.077 394.139 119.22 385.128C118.513 382.86 117.777 380.593 117.04 378.355C116.363 376.352 115.833 374.055 114.743 372.259C114.478 371.847 113.889 372.112 113.977 372.583C114.36 374.526 115.273 376.44 115.921 378.325C116.598 380.357 117.246 382.359 117.924 384.391C119.396 388.985 120.869 393.55 122.518 398.085C125.699 406.801 129.558 415.724 135.861 422.674C138.806 425.913 143.018 429.712 147.494 430.536C147.642 430.536 147.759 430.33 147.612 430.242Z" fill="#0050C9"/>
<path d="M171.557 444.818C168.229 442.374 165.137 439.695 162.486 436.455C159.923 433.304 157.773 429.829 155.947 426.207C152.148 418.728 149.674 410.688 147.347 402.679C146.081 398.291 144.873 393.903 143.518 389.545C143.312 388.926 142.34 389.191 142.517 389.81C147.318 405.594 150.528 422.968 161.013 436.22C163.841 439.783 167.228 443.081 171.204 445.319C171.616 445.496 171.852 445.025 171.557 444.818Z" fill="#0050C9"/>
<path d="M184.811 453.888C183.014 451.297 181.041 448.853 179.391 446.144C177.683 443.346 176.152 440.46 174.767 437.515C173.354 434.541 172.146 431.479 171.056 428.357C170.526 426.855 170.055 425.353 169.613 423.822C169.201 422.409 168.936 420.907 168.288 419.552C168.111 419.199 167.552 419.375 167.581 419.758C167.64 421.26 168.141 422.703 168.582 424.117C169.054 425.707 169.554 427.297 170.114 428.858C171.174 431.891 172.411 434.894 173.795 437.81C175.209 440.843 176.829 443.788 178.655 446.585C180.363 449.206 182.189 452.004 184.487 454.124C184.664 454.301 184.958 454.094 184.811 453.888Z" fill="#0050C9"/>
<path d="M108.322 413.074C105.848 412.691 103.257 412.838 100.782 412.867C98.2201 412.926 95.6577 413.044 93.0954 413.221C87.7644 413.604 82.4335 414.193 77.132 414.752C71.8305 415.282 66.5291 415.842 61.2276 416.077C58.6947 416.195 56.1617 416.225 53.6288 416.166C51.0075 416.107 48.3862 415.665 45.7944 415.724C45.6766 415.724 45.6471 415.901 45.7649 415.93C48.1212 416.637 50.713 416.607 53.1281 416.696C55.661 416.784 58.194 416.755 60.7269 416.696C66.0284 416.548 71.3298 416.107 76.6313 415.577C81.9622 415.047 87.2637 414.458 92.6241 414.045C95.1865 413.839 97.7489 413.692 100.311 413.604C102.962 413.515 105.642 413.721 108.293 413.574C108.499 413.545 108.587 413.132 108.322 413.074Z" fill="#0050C9"/>
<path d="M130.588 422.762C120.574 421.201 110.089 423.233 100.37 425.736C90.1499 428.386 80.1066 431.773 69.7098 433.628C66.7056 434.158 63.7014 434.6 60.6384 434.806C57.6342 434.983 54.6595 434.777 51.6259 434.747C51.3019 434.747 51.2135 435.277 51.5375 435.336C56.4561 436.131 61.7576 435.513 66.6762 434.894C71.8304 434.247 76.8962 433.039 81.9326 431.714C92.0938 429.005 102.137 425.648 112.534 423.91C118.513 422.909 124.462 422.703 130.5 423.174C130.765 423.174 130.824 422.791 130.588 422.762Z" fill="#0050C9"/>
<path d="M158.686 437.722C153.886 435.513 148.29 434.688 143.047 434.482C137.51 434.276 131.973 434.865 126.553 435.837C115.008 437.928 103.904 441.815 92.6829 445.083C86.5862 446.85 80.4012 448.146 74.1867 449.501C73.8332 449.589 73.9216 450.148 74.275 450.119C79.6354 449.736 84.9663 448.264 90.1206 446.85C95.5987 445.348 101.018 443.64 106.467 441.991C117.364 438.693 128.527 435.542 139.984 435.336C143.076 435.277 146.198 435.454 149.261 435.896C152.413 436.367 155.447 437.25 158.539 438.104C158.745 438.163 158.892 437.81 158.686 437.722Z" fill="#0050C9"/>
<path d="M175.798 447.675C165.932 445.761 155.564 446.821 145.727 448.352C135.183 449.972 124.845 452.534 114.478 455.066C111.739 455.744 108.97 456.391 106.231 457.039C103.433 457.687 100.458 458.188 97.7783 459.189C97.5721 459.248 97.6015 459.601 97.8372 459.572C100.164 459.483 102.491 458.865 104.759 458.394C107.262 457.893 109.736 457.275 112.24 456.686C117.246 455.479 122.283 454.271 127.319 453.123C137.598 450.767 148.024 448.676 158.569 447.999C164.282 447.616 170.026 447.763 175.769 448.117C175.975 448.087 176.034 447.734 175.798 447.675Z" fill="#0050C9"/>
<path d="M53.1576 407.243C53.6878 407.243 53.6878 406.389 53.1576 406.389C52.6275 406.418 52.6275 407.243 53.1576 407.243Z" fill="#0050C9"/>
<path d="M56.6328 412.926C56.8093 412.926 56.8093 412.661 56.6328 412.661C56.4564 412.661 56.4564 412.926 56.6328 412.926Z" fill="#0050C9"/>
<path d="M44.4101 412.043C45.382 412.043 45.382 410.512 44.4101 410.512C43.4382 410.512 43.4382 412.043 44.4101 412.043Z" fill="#0050C9"/>
<path d="M55.5137 408.391C56.6918 408.391 56.7213 406.536 55.5137 406.536C54.3356 406.536 54.3356 408.391 55.5137 408.391Z" fill="#0050C9"/>
<path d="M46.295 403.326C46.4422 403.415 46.5895 403.474 46.7367 403.562C47.0902 403.739 47.5025 403.503 47.532 403.12C47.532 402.944 47.532 402.796 47.532 402.62C47.532 402.001 46.8251 401.589 46.295 401.913C45.7648 402.207 45.7354 403.032 46.295 403.326Z" fill="#0050C9"/>
<path d="M63.3482 409.51C63.2893 409.628 63.2599 409.775 63.201 409.893C63.1126 410.129 63.2893 410.453 63.5544 410.512C63.7017 410.541 63.8195 410.541 63.9667 410.571C64.114 410.6 64.2613 410.6 64.4085 410.571C64.5852 410.541 64.7325 410.394 64.8503 410.276C65.0565 410.011 65.1154 409.628 64.9092 409.334C64.762 409.069 64.4674 408.921 64.1729 408.921C63.7606 408.863 63.4955 409.157 63.3482 409.51Z" fill="#0050C9"/>
<path d="M104.081 380.445C104.17 380.563 104.228 380.71 104.317 380.828C104.435 381.005 104.582 381.123 104.729 381.27C104.935 381.506 105.141 381.741 105.436 381.918C105.701 382.094 106.143 381.859 106.113 381.535C106.084 381.211 105.996 380.917 105.878 380.593C105.819 380.445 105.819 380.269 105.76 380.121C105.701 379.945 105.583 379.798 105.495 379.621C105.024 378.679 103.522 379.533 104.081 380.445Z" fill="#0050C9"/>
<path d="M111.503 390.369C111.621 390.281 111.798 390.193 111.886 390.104C112.092 389.898 112.181 389.574 112.092 389.28C112.063 389.427 112.063 389.604 112.033 389.751C112.063 389.692 112.092 389.604 112.122 389.545C112.033 389.663 111.945 389.78 111.857 389.869C112.122 389.721 112.24 389.339 112.063 389.103C111.886 388.838 111.562 388.75 111.297 388.897C111.444 388.867 111.592 388.867 111.739 388.838C111.68 388.809 111.592 388.809 111.503 388.809C111.651 388.867 111.798 388.926 111.945 388.985C111.709 388.779 111.415 388.691 111.12 388.779C110.973 388.809 110.826 388.926 110.679 388.985C110.296 389.162 110.178 389.721 110.384 390.075C110.62 390.428 111.12 390.605 111.503 390.369Z" fill="#0050C9"/>
<path d="M103.433 387.748C104.641 387.748 104.641 385.864 103.433 385.864C102.226 385.864 102.226 387.748 103.433 387.748Z" fill="#0050C9"/>
<path d="M106.703 394.227C107.557 394.227 107.557 392.902 106.703 392.902C105.878 392.902 105.878 394.227 106.703 394.227Z" fill="#0050C9"/>
<path d="M129.793 442.993C129.823 443.022 129.823 443.022 129.852 443.052C129.911 443.11 129.941 443.14 129.999 443.199C130.176 443.346 130.353 443.434 130.588 443.523C130.942 443.641 131.472 443.375 131.531 442.993C131.531 442.934 131.531 442.904 131.56 442.845C131.59 442.639 131.59 442.521 131.56 442.286C131.56 442.227 131.531 442.168 131.502 442.08C131.502 442.05 131.502 442.021 131.472 441.991C131.325 441.373 130.53 441.079 129.999 441.402C129.469 441.756 129.322 442.58 129.793 442.993Z" fill="#0050C9"/>
<path d="M124.256 447.586C124.374 447.528 124.462 447.439 124.58 447.38C124.492 447.41 124.403 447.439 124.344 447.469C124.433 447.439 124.492 447.41 124.58 447.41C125.228 447.204 125.434 446.438 124.963 445.967C124.904 445.908 124.845 445.82 124.786 445.761C124.845 445.82 124.904 445.908 124.963 445.967C124.904 445.879 124.845 445.761 124.786 445.672C124.521 445.172 123.932 444.936 123.402 444.995C122.872 445.054 122.371 445.466 122.224 445.996C122.106 446.467 122.224 446.998 122.577 447.351C122.99 447.793 123.726 447.91 124.256 447.586Z" fill="#0050C9"/>
<path d="M144.372 452.975C144.255 452.887 144.137 452.799 144.019 452.74C143.489 452.475 142.9 452.799 142.9 453.388C142.9 453.535 142.929 453.653 142.929 453.8C142.959 454.153 143.106 454.448 143.4 454.625C143.695 454.801 144.078 454.801 144.372 454.625C144.667 454.448 144.844 454.124 144.844 453.8C144.844 453.447 144.667 453.182 144.372 452.975Z" fill="#0050C9"/>
<path d="M136.98 447.174C137.805 447.174 137.805 445.908 136.98 445.908C136.155 445.879 136.155 447.174 136.98 447.174Z" fill="#0050C9"/>
<path d="M70.8879 442.61C71.9482 442.61 71.9482 440.961 70.8879 440.961C69.857 440.961 69.857 442.61 70.8879 442.61Z" fill="#0050C9"/>
<path d="M70.0339 447.292C69.9161 447.292 69.7983 447.292 69.7099 447.321C67.2359 447.469 69.3859 451.12 70.7113 449.088C70.7702 449 70.8291 448.912 70.888 448.794C71.3003 448.175 70.7702 447.233 70.0339 447.292Z" fill="#0050C9"/>
<path d="M130.559 384.98C130.588 385.039 130.647 385.069 130.677 385.128C130.736 385.216 130.824 385.363 130.912 385.422C131.178 385.658 131.531 385.776 131.884 385.658C131.737 385.658 131.619 385.658 131.472 385.658C131.501 385.658 131.501 385.658 131.531 385.687C131.884 385.805 132.326 385.569 132.415 385.187C132.415 385.157 132.415 385.157 132.415 385.128C132.356 385.245 132.267 385.363 132.208 385.481C132.473 385.275 132.591 384.863 132.473 384.539C132.444 384.421 132.385 384.303 132.326 384.185C132.297 384.126 132.267 384.068 132.238 384.009C132.149 383.802 131.855 383.626 131.649 383.567C131.413 383.508 131.119 383.537 130.912 383.655C130.706 383.802 130.53 383.979 130.471 384.244C130.412 384.48 130.412 384.774 130.559 384.98Z" fill="#0050C9"/>
<path d="M140.367 396.112C140.072 395.964 139.719 395.729 139.424 395.935C139.218 396.082 139.159 396.288 139.13 396.524C139.13 396.642 139.13 396.73 139.1 396.848C139.071 397.496 139.837 397.879 140.367 397.584C140.868 397.26 140.926 396.377 140.367 396.112Z" fill="#0050C9"/>
<path d="M130.441 395.258C130.264 395.169 130.088 395.051 129.882 395.022C129.646 394.993 129.469 395.081 129.381 395.317C129.322 395.493 129.322 395.729 129.322 395.935C129.292 396.524 129.999 396.877 130.471 396.583C130.912 396.288 130.971 395.523 130.441 395.258Z" fill="#0050C9"/>
<path d="M131.266 389.663C131.207 389.81 131.119 389.957 131.06 390.104C130.854 390.458 131.119 390.929 131.531 390.929C131.708 390.929 131.855 390.958 132.032 390.958C132.326 390.988 132.65 390.782 132.797 390.517C132.945 390.252 132.945 389.898 132.797 389.633C132.65 389.368 132.356 389.191 132.032 389.191C131.737 389.25 131.384 389.398 131.266 389.663Z" fill="#0050C9"/>
<path d="M136.096 400.735C135.949 400.588 135.831 400.44 135.684 400.293C135.625 400.234 135.566 400.175 135.507 400.087C135.33 399.91 135.154 399.852 134.948 399.793C134.565 399.675 134.123 399.91 134.034 400.293C133.976 400.529 133.946 400.735 134.005 400.941C134.034 401.029 134.064 401.118 134.093 401.206C134.152 401.383 134.211 401.589 134.27 401.766C134.476 402.443 135.242 402.767 135.861 402.414C136.509 402.09 136.567 401.236 136.096 400.735Z" fill="#0050C9"/>
<path d="M23.8522 358.536C23.7049 358.095 24.3234 357.888 24.5885 358.242C29.6838 365.309 34.7791 371.758 41.4354 377.442C47.5321 382.654 54.4829 386.659 60.8447 391.547C61.3748 391.96 60.7269 392.637 60.1967 392.401C45.9417 386.099 29.1831 373.761 23.8522 358.536Z" fill="#C9DAFB"/>
<path d="M63.0538 370.256C68.4436 375.145 73.3327 380.593 78.6637 385.569C84.083 390.634 90.0913 395.346 94.5976 401.294C94.9804 401.795 94.2441 402.502 93.7434 402.148C87.6467 397.908 82.3158 392.431 76.926 387.336C71.6539 382.33 66.0579 377.147 62.1702 370.934C61.8756 370.374 62.612 369.844 63.0538 370.256Z" fill="#C9DAFB"/>
<path d="M92.6241 375.793C92.4474 375.469 92.8891 375.086 93.1542 375.38C97.7783 381.211 101.548 387.719 105.789 393.844C110.855 401.177 117.629 407.037 122.666 414.222C122.931 414.605 122.43 415.076 122.018 414.87C115.391 411.189 110.649 404.092 106.378 397.996C101.43 390.929 96.8358 383.361 92.6241 375.793Z" fill="#C9DAFB"/>
<path d="M130.677 403.65C126.053 395.14 122.43 385.51 120.604 375.999C120.486 375.41 121.282 375.204 121.488 375.763C124.639 384.215 127.408 392.666 131.502 400.735C135.684 408.951 141.751 415.253 147.2 422.556C147.671 423.174 146.758 424.058 146.14 423.616C139.307 418.904 134.565 410.836 130.677 403.65Z" fill="#C9DAFB"/>
<path d="M157.243 417.756C153.326 410.276 150.469 402.355 149.085 394.021C148.997 393.461 149.792 393.226 149.969 393.785C152.089 401.795 155.388 409.275 159.217 416.607C162.751 423.351 168.406 429.8 170.762 437.015C170.968 437.663 170.114 438.075 169.672 437.663C164.253 432.509 160.689 424.293 157.243 417.756Z" fill="#C9DAFB"/>
<path d="M6.21006 379.385C18.8747 384.863 29.1831 392.961 43.7622 392.578C44.3218 392.548 44.2923 393.373 43.7622 393.432C30.3318 395.081 16.0767 388.22 5.76827 380.004C5.38539 379.709 5.82718 379.238 6.21006 379.385Z" fill="#C9DAFB"/>
<path d="M53.7761 412.102C59.4899 412.19 65.2037 412.367 70.9175 412.396C77.4855 412.426 84.0534 411.071 90.5919 411.277C91.0042 411.277 91.0337 411.807 90.6803 411.955C79.5766 416.254 65.2921 414.045 53.7761 412.838C53.3343 412.779 53.3048 412.102 53.7761 412.102Z" fill="#C9DAFB"/>
<path d="M62.5825 427.002C75.1588 430.919 85.8206 424.293 98.1318 423.999C98.7503 423.969 98.8681 424.912 98.2791 425.088C86.7631 428.239 73.8334 432.48 62.288 427.709C61.8756 427.532 62.1701 426.885 62.5825 427.002Z" fill="#C9DAFB"/>
<path d="M83.7589 442.993C98.7208 437.574 116.127 429.771 132.385 431.361C132.886 431.42 133.092 432.244 132.503 432.333C124.462 433.452 116.657 434.453 108.823 436.632C100.488 438.958 92.418 442.05 83.9945 444.023C83.3465 444.2 83.1109 443.228 83.7589 442.993Z" fill="#C9DAFB"/>
<path d="M98.2792 455.449C107.203 453.594 115.156 448.971 123.962 446.791C133.269 444.465 143.342 443.935 152.855 442.639C153.562 442.551 153.797 443.434 153.149 443.699C144.255 447.322 133.622 446.085 124.286 447.94C115.332 449.707 107.527 455.007 98.3675 456.038C98.0435 456.038 97.9846 455.508 98.2792 455.449Z" fill="#C9DAFB"/>
<path d="M618.648 465.196C618.648 471.086 613.789 475.856 607.78 475.856H41.1114C35.1031 475.856 30.2434 471.086 30.2434 465.196C30.2434 459.307 35.1031 454.536 41.1114 454.536H607.78C613.789 454.536 618.648 459.307 618.648 465.196Z" fill="#FD919E"/>
<path d="M378.58 448.971H263.243C263.243 448.971 293.403 441.491 293.403 432.686C293.403 423.881 293.403 320.519 293.403 320.519H348.45C348.45 320.519 348.45 419.464 348.45 432.686C348.42 445.908 378.58 448.971 378.58 448.971Z" fill="#EDECEC"/>
<path d="M509.143 403.945C509.143 411.248 503.223 417.138 495.949 417.138H145.904C138.6 417.138 132.68 411.218 132.68 403.945V155.67C132.68 148.367 138.6 142.448 145.904 142.448H495.949C503.253 142.448 509.143 148.367 509.143 155.67V403.945Z" fill="#D6E2EA"/>
<path d="M502.104 358.831C502.104 364.602 496.42 369.285 489.381 369.285H152.442C145.433 369.285 139.719 364.602 139.719 358.831V162.09C139.719 156.318 145.403 151.636 152.442 151.636H489.381C496.39 151.636 502.104 156.318 502.104 162.09V358.831Z" fill="#578CF2"/>
<path d="M132.68 375.91V403.974C132.68 411.277 138.6 417.167 145.904 417.167H495.949C503.253 417.167 509.143 411.248 509.143 403.974V375.91H132.68Z" fill="#344953"/>
<path d="M378.609 448.971H263.243V457.334H378.609V448.971Z" fill="#C6C6C6"/>
<path d="M483.284 100.691H159.865V346.227H483.284V100.691Z" fill="#D6EEFD"/>
<path d="M477.806 106.698H166.933V128.372H477.806V106.698Z" fill="white"/>
<path d="M467.792 112.234C465.936 110.026 462.579 109.672 460.282 111.469C457.984 113.265 457.631 116.534 459.486 118.742C461.136 120.715 463.993 121.216 466.231 120.009C466.231 120.038 466.26 120.038 466.26 120.067L470.089 124.661C470.413 125.044 471.002 125.103 471.385 124.809C471.797 124.485 471.856 123.925 471.532 123.542L467.704 118.948C467.674 118.919 467.674 118.919 467.645 118.919C469.323 117.034 469.441 114.207 467.792 112.234ZM466.172 118.507C464.464 119.861 461.931 119.596 460.517 117.918C459.133 116.269 459.398 113.795 461.106 112.47C462.814 111.115 465.347 111.38 466.761 113.059C468.145 114.708 467.88 117.152 466.172 118.507Z" fill="#DADADA"/>
<path d="M375.399 143.272H176.859V271.253H375.399V143.272Z" fill="white"/>
<path d="M371.217 147.454H181.041V255.056H371.217V147.454Z" fill="#609AF2"/>
<path d="M350.129 263.096C350.129 265.422 348.244 267.277 345.946 267.277H207.813C205.487 267.277 203.631 265.393 203.631 263.096C203.631 260.769 205.516 258.914 207.813 258.914H345.946C348.273 258.885 350.129 260.769 350.129 263.096Z" fill="#CDE4F2"/>
<path d="M260.151 260.416H209.433C207.46 260.416 205.84 261.623 205.84 263.096C205.84 264.568 207.46 265.775 209.433 265.775H260.151V260.416Z" fill="#FF7979"/>
<path d="M181.041 267.601V258.59L186.725 263.096L181.041 267.601Z" fill="#CDE4F2"/>
<path d="M193.5 258.59H191.084V267.631H193.5V258.59Z" fill="#CDE4F2"/>
<path d="M197.505 258.59H195.09V267.631H197.505V258.59Z" fill="#CDE4F2"/>
<path d="M357.168 261.8V259.002H362.204V257.53H355.636V261.8H357.168Z" fill="#CDE4F2"/>
<path d="M369.214 261.8H370.745V257.53H364.177V259.002H369.214V261.8Z" fill="#CDE4F2"/>
<path d="M369.214 264.274V267.189H364.177V268.661H370.745V264.274H369.214Z" fill="#CDE4F2"/>
<path d="M357.168 264.274H355.636V268.661H362.204V267.189H357.168V264.274Z" fill="#CDE4F2"/>
<path d="M465.318 326.232C465.318 330.207 461.813 333.447 457.483 333.447H390.95C386.62 333.447 383.115 330.237 383.115 326.232V150.458C383.115 146.482 386.62 143.243 390.95 143.243H457.483C461.813 143.243 465.318 146.453 465.318 150.458V326.232Z" fill="white"/>
<path d="M459.192 152.666H389.242V201.255H459.192V152.666Z" fill="#97BBCF"/>
<path d="M420.756 184.146V167.685L432.507 175.93L420.756 184.146Z" fill="#C3D2DB"/>
<path d="M440.489 175.93C440.489 184.912 433.185 192.215 424.202 192.215C415.219 192.215 407.915 184.912 407.915 175.93C407.915 166.948 415.219 159.645 424.202 159.645C433.214 159.645 440.489 166.919 440.489 175.93Z" stroke="#C3D2DB" stroke-width="5.3219" stroke-miterlimit="10"/>
<path d="M459.192 210.001H389.242V258.59H459.192V210.001Z" fill="#97BBCF"/>
<path d="M420.756 241.481V225.02L432.507 233.236L420.756 241.481Z" fill="#C3D2DB"/>
<path d="M440.489 233.236C440.489 242.217 433.185 249.52 424.202 249.52C415.219 249.52 407.915 242.217 407.915 233.236C407.915 224.225 415.219 216.951 424.202 216.951C433.214 216.951 440.489 224.254 440.489 233.236Z" stroke="#C3D2DB" stroke-width="5.3219" stroke-miterlimit="10"/>
<path d="M459.192 267.307H389.242V315.896H459.192V267.307Z" fill="#97BBCF"/>
<path d="M420.756 298.787V282.355L432.507 290.571L420.756 298.787Z" fill="#C3D2DB"/>
<path d="M440.489 290.571C440.489 299.552 433.185 306.855 424.202 306.855C415.219 306.855 407.915 299.552 407.915 290.571C407.915 281.56 415.219 274.286 424.202 274.286C433.214 274.286 440.489 281.56 440.489 290.571Z" stroke="#C3D2DB" stroke-width="5.3219" stroke-miterlimit="10"/>
<path d="M365.473 282.355H186.725V291.631H365.473V282.355Z" fill="#97BBCF"/>
<path d="M365.473 298.787H186.725V308.063H365.473V298.787Z" fill="#97BBCF"/>
<path d="M365.473 315.248H186.725V324.524H365.473V315.248Z" fill="#97BBCF"/>
</svg>
