<svg width="43" height="43" viewBox="0 0 43 43" fill="none" xmlns="http://www.w3.org/2000/svg">
<path d="M34.0977 22.7598C30.6247 22.7598 27.7988 25.5856 27.7988 29.0586C27.7988 32.5316 30.6247 35.3574 34.0977 35.3574C37.5707 35.3574 40.3965 32.5316 40.3965 29.0586C40.3965 25.5856 37.5707 22.7598 34.0977 22.7598ZM36.6172 30.3184H34.0977C33.4013 30.3184 32.8379 29.7549 32.8379 29.0586V26.5391C32.8379 25.8427 33.4013 25.2793 34.0977 25.2793C34.794 25.2793 35.3574 25.8427 35.3574 26.5391V27.7988H36.6172C37.3135 27.7988 37.877 28.3623 37.877 29.0586C37.877 29.7549 37.3135 30.3184 36.6172 30.3184Z" fill="#FD9191"/>
<path d="M41.7402 0H1.25977C0.564039 0 0 0.563871 0 1.25977V2.51953C0 3.9109 1.12799 5.12305 2.51953 5.12305H40.4805C41.872 5.12305 43 3.9109 43 2.51953V1.25977C43 0.563871 42.436 0 41.7402 0Z" fill="#2F7DF0"/>
<path d="M2.60352 7.64258V26.5391C2.60352 28.6231 4.29882 30.3184 6.38281 30.3184H20.2402V35.6735C18.7771 36.1952 17.7207 37.5805 17.7207 39.2207C17.7207 41.3047 19.416 43 21.5 43C23.584 43 25.2793 41.3047 25.2793 39.2207C25.2793 37.5805 24.2229 36.1952 22.7598 35.6735V30.3184H25.4066C25.3465 29.9033 25.2793 29.4899 25.2793 29.0586C25.2793 24.1967 29.2357 20.2402 34.0977 20.2402C36.5661 20.2402 38.7941 21.2663 40.3965 22.9067V7.64258H2.60352ZM32.8379 13.9414C32.8379 14.6377 32.2744 15.2012 31.5781 15.2012C31.0359 15.2012 30.5837 14.8555 30.4059 14.3755L22.3907 22.3907C22.1447 22.6367 21.8223 22.7598 21.5001 22.7598C21.1778 22.7598 20.8554 22.6367 20.6094 22.3907L16.4609 18.2423L12.3125 22.3907C11.8205 22.8828 11.0232 22.8828 10.5311 22.3907C10.0391 21.8987 10.0391 21.1014 10.5312 20.6093L15.5703 15.5703C16.0623 15.0782 16.8596 15.0782 17.3517 15.5703L21.5 19.7186L28.6245 12.5941C28.1445 12.4163 27.7988 11.9641 27.7988 11.4219C27.7988 10.7256 28.3623 10.1621 29.0586 10.1621H31.5781C32.2744 10.1621 32.8379 10.7346 32.8379 11.4219V13.9414Z" fill="#2F7DF0"/>
</svg>
