<svg width="149" height="23" fill="none" xmlns="http://www.w3.org/2000/svg"><path d="M5.15 11.392h1.69c1.872 0 2.808-.815 2.808-2.444 0-1.63-.936-2.444-2.808-2.444H5.15v4.888zM5.15 22H.054V2.396h8.112c2.201 0 3.883.572 5.044 1.716 1.179 1.144 1.768 2.756 1.768 4.836 0 2.08-.59 3.692-1.768 4.836-1.161 1.144-2.843 1.716-5.044 1.716H5.15V22zm16.146-6.708c0 .433.078.84.234 1.222.156.364.364.685.624.962.278.277.598.494.962.65.382.156.79.234 1.222.234.416 0 .806-.078 1.17-.234.382-.156.702-.373.962-.65.278-.277.494-.598.65-.962.174-.364.26-.754.26-1.17 0-.416-.086-.806-.26-1.17a2.97 2.97 0 00-.65-.988 2.698 2.698 0 00-.962-.65 2.938 2.938 0 00-1.17-.234c-.433 0-.84.078-1.222.234a3.043 3.043 0 00-.962.65c-.26.277-.468.598-.624.962a2.756 2.756 0 00-.234 1.144zm5.928-6.63h4.732V22h-4.732v-1.482c-1.005 1.265-2.366 1.898-4.082 1.898-.97 0-1.863-.173-2.678-.52a6.625 6.625 0 01-2.132-1.508 7.08 7.08 0 01-1.43-2.262c-.329-.867-.494-1.811-.494-2.834 0-.953.165-1.855.494-2.704.33-.867.79-1.62 1.378-2.262a6.336 6.336 0 012.106-1.508c.815-.381 1.716-.572 2.704-.572 1.664 0 3.042.58 4.134 1.742V8.662zM39.864.42V22H35.16V.42h4.706zm12.967 12.974c-.156-.659-.477-1.187-.962-1.586-.486-.399-1.075-.598-1.768-.598-.728 0-1.326.19-1.794.572-.45.381-.737.919-.858 1.612h5.382zm-5.512 2.73c0 2.028.953 3.042 2.86 3.042 1.022 0 1.794-.416 2.314-1.248h4.55c-.919 3.05-3.216 4.576-6.89 4.576-1.127 0-2.158-.165-3.094-.494a7.211 7.211 0 01-2.418-1.456 6.515 6.515 0 01-1.534-2.236c-.364-.867-.546-1.837-.546-2.912 0-1.11.173-2.106.52-2.99.346-.901.84-1.664 1.482-2.288a6.437 6.437 0 012.314-1.43c.918-.347 1.95-.52 3.094-.52 1.126 0 2.14.173 3.042.52.901.33 1.664.815 2.288 1.456.624.641 1.1 1.43 1.43 2.366.33.919.494 1.959.494 3.12v.494h-9.906zm16.929-1.352l-5.408-6.11h6.136l2.288 2.756 2.34-2.756h6.136l-5.538 6.11L76.884 22h-6.24l-3.406-3.952L63.806 22h-6.214l6.656-7.228z" fill="#71A5F4"/><path d="M91.055 2.396l3.38 12.662 4.16-12.662h4.056l4.16 12.662 3.38-12.662h5.33L109.671 22h-5.2l-3.848-11.362L96.775 22h-5.2l-5.85-19.604h5.33zm34.952 10.998c-.156-.659-.477-1.187-.962-1.586-.486-.399-1.075-.598-1.768-.598-.728 0-1.326.19-1.794.572-.451.381-.737.919-.858 1.612h5.382zm-5.512 2.73c0 2.028.953 3.042 2.86 3.042 1.022 0 1.794-.416 2.314-1.248h4.55c-.919 3.05-3.216 4.576-6.89 4.576-1.127 0-2.158-.165-3.094-.494a7.211 7.211 0 01-2.418-1.456 6.511 6.511 0 01-1.534-2.236c-.364-.867-.546-1.837-.546-2.912 0-1.11.173-2.106.52-2.99.346-.901.84-1.664 1.482-2.288a6.43 6.43 0 012.314-1.43c.918-.347 1.95-.52 3.094-.52 1.126 0 2.14.173 3.042.52.901.33 1.664.815 2.288 1.456.624.641 1.1 1.43 1.43 2.366.329.919.494 1.959.494 3.12v.494h-9.906zm23.23-.754c0-.416-.078-.806-.234-1.17a2.975 2.975 0 00-1.612-1.638 2.747 2.747 0 00-1.196-.26c-.416 0-.806.078-1.17.234a3.04 3.04 0 00-.962.65c-.26.277-.477.607-.65.988a2.938 2.938 0 00-.234 1.17c0 .416.078.806.234 1.17.156.364.372.685.65.962.277.26.598.477.962.65.381.156.78.234 1.196.234.416 0 .806-.078 1.17-.234.364-.156.676-.373.936-.65.277-.277.494-.598.65-.962.173-.364.26-.745.26-1.144zM137.797.42v9.568c1.109-1.161 2.496-1.742 4.16-1.742.988 0 1.889.19 2.704.572a6.004 6.004 0 012.106 1.508 6.674 6.674 0 011.378 2.236c.329.85.494 1.76.494 2.73 0 .988-.174 1.915-.52 2.782a6.751 6.751 0 01-1.404 2.262 6.89 6.89 0 01-2.158 1.534 6.428 6.428 0 01-2.652.546c-1.734 0-3.103-.633-4.108-1.898V22h-4.706V.42h4.706z" fill="#344953"/></svg>