<svg xmlns="http://www.w3.org/2000/svg">
    <symbol id="arr-small-left">
        <path d="M.47 6.53a.75.75 0 010-1.06L5.243.697a.75.75 0 111.06 1.06L2.061 6l4.242 4.243a.75.75 0 01-1.06 1.06L.47 6.53zm1.03.22H1v-1.5h.5v1.5z" fill="currentcolor"/>
    </symbol>

    <symbol id="arr-small-right">
        <path d="M6.53 6.53a.75.75 0 000-1.06L1.757.697a.75.75 0 00-1.06 1.06L4.939 6 .697 10.243a.75.75 0 001.06 1.06L6.53 6.53zm-1.03.22H6v-1.5h-.5v1.5z" fill="currentcolor"/>
    </symbol>

    <symbol id="soc-fb">
       <path d="M15.5 0C6.94 0 0 7.207 0 16.097 0 24.13 5.667 30.787 13.079 32V20.75H9.14v-4.653h3.938V12.55c0-4.037 2.314-6.264 5.853-6.264 1.696 0 3.472.314 3.472.314v3.959h-1.959c-1.922 0-2.524 1.243-2.524 2.516v3.018h4.296l-.687 4.654h-3.609v11.25C25.333 30.79 31 24.13 31 16.097 31 7.207 24.06 0 15.5 0z" fill="currentcolor"/>
    </symbol>

    <symbol id="soc-inst-header">
        <circle cx="16" cy="16" r="16" fill="currentcolor"/>
        <path d="M15.9978 12.7702C14.5289 12.7702 13.3301 13.9585 13.3301 15.4146C13.3301 16.8706 14.5289 18.0589 15.9978 18.0589C17.4668 18.0589 18.6656 16.8706 18.6656 15.4146C18.6656 13.9585 17.4668 12.7702 15.9978 12.7702ZM23.9991 15.4146C23.9991 14.3195 24.0091 13.2344 23.9471 12.1413C23.885 10.8717 23.5928 9.74496 22.6562 8.81656C21.7176 7.88617 20.5829 7.59853 19.302 7.53703C18.1973 7.47553 17.1026 7.48545 15.9999 7.48545C14.8951 7.48545 13.8004 7.47553 12.6977 7.53703C11.4168 7.59853 10.2801 7.88816 9.34348 8.81656C8.40486 9.74694 8.11467 10.8717 8.05263 12.1413C7.99059 13.2364 8.0006 14.3215 8.0006 15.4146C8.0006 16.5076 7.99059 17.5947 8.05263 18.6878C8.11467 19.9574 8.40686 21.0841 9.34348 22.0125C10.2821 22.9429 11.4168 23.2306 12.6977 23.2921C13.8024 23.3536 14.8971 23.3436 15.9999 23.3436C17.1046 23.3436 18.1993 23.3536 19.302 23.2921C20.5829 23.2306 21.7196 22.9409 22.6562 22.0125C23.5948 21.0822 23.885 19.9574 23.9471 18.6878C24.0111 17.5947 23.9991 16.5096 23.9991 15.4146ZM15.9978 19.4832C13.7264 19.4832 11.8932 17.6661 11.8932 15.4146C11.8932 13.163 13.7264 11.3459 15.9978 11.3459C18.2693 11.3459 20.1025 13.163 20.1025 15.4146C20.1025 17.6661 18.2693 19.4832 15.9978 19.4832ZM20.2707 12.1294C19.7403 12.1294 19.312 11.7049 19.312 11.1792C19.312 10.6535 19.7403 10.229 20.2707 10.229C20.801 10.229 21.2293 10.6535 21.2293 11.1792C21.2294 11.304 21.2048 11.4277 21.1566 11.543C21.1085 11.6584 21.0379 11.7632 20.9489 11.8515C20.8598 11.9397 20.7541 12.0097 20.6377 12.0574C20.5213 12.1051 20.3966 12.1296 20.2707 12.1294Z" fill="white"/>
    </symbol>

    <symbol id="soc-inst-footer">
        <circle cx="16" cy="16" r="16" fill="currentcolor"/>
        <path d="M15.998 12.77c-1.47 0-2.668 1.189-2.668 2.645s1.199 2.644 2.668 2.644 2.668-1.188 2.668-2.644c0-1.456-1.2-2.645-2.668-2.645zm8.001 2.645c0-1.095.01-2.18-.052-3.274-.062-1.27-.354-2.396-1.29-3.324-.94-.93-2.074-1.218-3.355-1.28-1.105-.061-2.2-.052-3.302-.052-1.105 0-2.2-.01-3.302.052-1.281.062-2.418.351-3.355 1.28-.938.93-1.228 2.055-1.29 3.324C7.99 13.236 8 14.321 8 15.415c0 1.093-.01 2.18.052 3.273.062 1.27.354 2.396 1.29 3.325.94.93 2.074 1.218 3.355 1.28 1.104.06 2.2.05 3.302.05 1.105 0 2.2.01 3.302-.05 1.28-.062 2.418-.352 3.354-1.28.939-.93 1.229-2.056 1.291-3.325.064-1.093.052-2.178.052-3.273zm-8.001 4.068c-2.272 0-4.105-1.817-4.105-4.068 0-2.252 1.833-4.07 4.105-4.07 2.271 0 4.104 1.818 4.104 4.07 0 2.251-1.833 4.068-4.104 4.068zm4.273-7.354a.953.953 0 01-.959-.95c0-.526.428-.95.959-.95a.953.953 0 01.886 1.314.949.949 0 01-.52.514.964.964 0 01-.366.072z" fill="#202328"/>
    </symbol>
</svg>